#N canvas 1931 41 1898 996 12;
#X declare -path granulators;
#X obj 1270 12 controller;
#X obj 1776 91 granulators/_granulator;
#X obj 1312 549 osc~ 440;
#X obj 1312 574 *~;
#X obj 1382 554 hsl 170 20 0 2 0 0 empty empty empty -2 -10 0 12 #fcfcfc #000000 #000000 0 1;
#X obj 1303 605 dac~;
#X obj 1577 376 s master-onoff;
#X obj 1577 318 tgl 50 0 empty empty empty 0 -10 0 12 #9c00ff #000000 #000000 0 1;
#X obj 1579 458 dac~;
#X obj 1578 429 *~;
#X obj 1580 534 vu 20 200 empty empty -1 -10 0 12 #404040 #000000 1 0;
#X obj 1579 508 - 90;
#X obj 1579 483 env~;
#X obj 1648 548 vsl 20 170 0 3 0 0 empty empty empty 0 -9 0 12 #fcfcfc #000000 #000000 0 1;
#X text 1315 518 test;
#X text 1675 549 master gain;
#X obj 34 1046 samplerate~;
#X floatatom 34 1073 7 0 0 0 - - - 0;
#X obj 34 1020 bng 19 250 50 0 empty empty empty 17 7 0 10 #dfdfdf #000000 #000000;
#X obj 34 993 receive pd-dsp-started;
#X obj 34 1097 v samplerate;
#N canvas 485 338 929 713 guts 0;
#X obj 102 113 on-off-vol-2ch;
#X obj 67 -52 bng 15 250 50 0 empty empty empty 17 7 0 10 #fcfcfc #000000 #000000;
#X obj 235 37 rev2~ 100 90 3000 50;
#X obj 68 -77 r trigger-grain;
#X obj 196 100 scope~;
#X obj 67 -30 aux-poly-voices aux-array-grain-poly 64 loop-grain 100 0 0 200 0 100 100 1-grain;
#X obj 97 331 audio_safety~;
#X obj 196 330 audio_safety~;
#X obj 96 373 send~ out1;
#X obj 166 374 send~ out2;
#X connect 0 0 4 0;
#X connect 0 0 6 0;
#X connect 0 1 4 0;
#X connect 0 1 7 0;
#X connect 1 0 5 0;
#X connect 2 0 0 0;
#X connect 2 1 0 1;
#X connect 3 0 1 0;
#X connect 5 0 0 0;
#X connect 5 1 0 1;
#X connect 5 2 2 0;
#X connect 5 3 2 0;
#X connect 6 0 8 0;
#X connect 7 0 9 0;
#X coords 0 -1 1 1 300 180 2 100 100;
#X restore 1258 663 pd guts;
#X obj 1776 113 declare -path granulators;
#X obj 1775 12 r master-onoff;
#X msg 1775 50 \; pd dsp \$1;
#X obj 981 894 s level-ctrl;
#X obj 981 710 vsl 19 162 0 127 0 0 empty empty empty 0 -9 0 12 #fcfcfc #000000 #000000 0 1;
#X obj 1087 711 vsl 19 162 0 127 0 0 empty empty empty 0 -9 0 12 #fcfcfc #000000 #000000 0 1;
#X obj 1087 895 s transp-skew-ctrl;
#X obj 1577 399 catch~ master;
#X obj 9 12 looper;
#X obj 87 640 r btn;
#X obj 87 665 route a b x y;
#X obj 87 697 tgl 20 0 empty empty empty 0 -10 0 12 #fcfcfc #000000 #000000 0 1;
#X obj 109 697 tgl 20 0 empty empty empty 0 -10 0 12 #fcfcfc #000000 #000000 0 1;
#X obj 131 698 tgl 20 0 empty empty empty 0 -10 0 12 #fcfcfc #000000 #000000 0 1;
#X obj 153 698 tgl 20 0 empty empty empty 0 -10 0 12 #fcfcfc #000000 #000000 0 1;
#X obj 87 815 s looper1-rec-onoff;
#X obj 109 793 s looper2-rec-onoff;
#X obj 131 771 s looper3-rec-onoff;
#X obj 153 723 s looper-clear;
#X obj 293 641 r trigger_left;
#X floatatom 293 665 5 0 0 0 - - - 0;
#X obj 293 689 s sample-vol;
#X obj 405 641 r trigger_left_toggle;
#X obj 405 666 tgl 20 0 empty empty empty 0 -10 0 12 #fcfcfc #000000 #000000 0 1;
#X obj 405 691 s sample-play;
#X obj 1270 318 sampler;
#X obj 646 663 s trigger_left;
#X obj 640 627 hsl 170 20 0 127 0 0 empty empty empty -2 -10 0 12 #fcfcfc #000000 #000000 0 1;
#X connect 2 0 3 0;
#X connect 3 0 5 0;
#X connect 3 0 5 1;
#X connect 4 0 3 1;
#X connect 7 0 6 0;
#X connect 9 0 8 0;
#X connect 9 0 8 1;
#X connect 9 0 12 0;
#X connect 11 0 10 0;
#X connect 12 0 11 0;
#X connect 13 0 9 1;
#X connect 16 0 17 0;
#X connect 17 0 20 0;
#X connect 18 0 16 0;
#X connect 19 0 18 0;
#X connect 23 0 24 0;
#X connect 26 0 25 0;
#X connect 27 0 28 0;
#X connect 29 0 9 0;
#X connect 31 0 32 0;
#X connect 32 0 33 0;
#X connect 32 1 34 0;
#X connect 32 2 35 0;
#X connect 32 3 36 0;
#X connect 33 0 37 0;
#X connect 34 0 38 0;
#X connect 35 0 39 0;
#X connect 36 0 40 0;
#X connect 41 0 42 0;
#X connect 42 0 43 0;
#X connect 44 0 45 0;
#X connect 45 0 46 0;
#X connect 49 0 48 0;
