#N canvas 3304 41 1365 656 12;
#X declare -lib hid;
#X obj 652 540 hid;
#X msg 316 431 print;
#X msg 256 431 refresh;
#X msg 186 431 open \$1;
#X obj 556 359 tgl 38 0 empty empty empty 17 7 0 10 #fcfcfc #000000 #000000 0 1;
#X floatatom 150 376 5 0 0 0 - - - 0;
#X obj 25 669 route abs;
#X obj 652 673 route key;
#X obj 809 723 route btn_0;
#X obj 899 723 route btn_1;
#X obj 996 720 route btn_3;
#X obj 1086 720 route btn_4;
#X obj 1174 718 route btn_6;
#X obj 1264 718 route btn_7;
#X obj 809 753 tgl 15 0 empty empty empty 17 7 0 10 #fcfcfc #000000 #000000 0 1;
#X obj 899 753 tgl 15 0 empty empty empty 17 7 0 10 #fcfcfc #000000 #000000 0 1;
#X obj 996 750 tgl 15 0 empty empty empty 17 7 0 10 #fcfcfc #000000 #000000 0 1;
#X obj 1086 750 tgl 15 0 empty empty empty 17 7 0 10 #fcfcfc #000000 #000000 0 1;
#X obj 1174 748 tgl 15 0 empty empty empty 17 7 0 10 #fcfcfc #000000 #000000 0 1;
#X obj 1264 748 tgl 15 0 empty empty empty 17 7 0 10 #fcfcfc #000000 #000000 0 1;
#X obj 552 723 route btn_13;
#X obj 652 723 route btn_14;
#X obj 552 753 tgl 15 0 empty empty empty 17 7 0 10 #fcfcfc #000000 #000000 0 1;
#X obj 652 752 tgl 15 0 empty empty empty 17 7 0 10 #fcfcfc #000000 #000000 0 1;
#X obj 1009 913 s btn;
#X text 829 753 a;
#X text 919 753 b;
#X text 1016 750 x;
#X text 1106 750 y;
#X text 1194 748 LB;
#X text 1284 748 RB;
#X obj 150 351 bng 24 250 50 0 empty empty empty 17 7 0 10 #fcfcfc #000000 #000000;
#X obj 253 373 bng 24 250 50 0 empty empty empty 17 7 0 10 #fcfcfc #000000 #000000;
#X obj 396 374 bng 24 250 50 0 empty empty empty 17 7 0 10 #fcfcfc #000000 #000000;
#X text 102 378 device;
#X text 199 380 refresh;
#X text 509 380 on/off;
#X obj 12 29 declare -lib hid;
#X obj 91 1037 t b b;
#X obj 91 1062 timer;
#X obj 91 1137 nbx 5 18 -1e+37 1e+37 0 0 empty empty empty 0 -10 0 12 #fcfcfc #000000 #000000 0 256;
#X obj 91 1214 nbx 5 18 -1e+37 1e+37 0 0 empty empty empty 0 -10 0 12 #fcfcfc #000000 #000000 0 256;
#X obj 210 1216 nbx 5 18 -1e+37 1e+37 0 0 empty empty empty 0 -10 0 12 #fcfcfc #000000 #000000 0 256;
#X obj 91 1189 min 99999;
#X obj 210 1191 max -99999;
#X obj 91 1087 sel 0;
#X obj 55 1134 bng 20 250 50 0 empty empty empty 0 -10 0 12 #fcfcfc #000000 #000000;
#X obj 669 428 metro 20;
#X obj 669 458 s ctrlr-poll;
#X obj 396 686 r stick;
#X obj 396 711 unpack s 0;
#X obj 396 814 s;
#X obj 396 736 t b s;
#X obj 396 775 float;
#X obj 25 709 ctrlr-value abs_x 62 69 0 stick_left_x;
#X obj 55 736 ctrlr-value abs_y 62 69 1 stick_left_y;
#X obj 108 791 ctrlr-value abs_ry 62 69 1 stick_right_y;
#X obj 84 763 ctrlr-value abs_rx 62 69 0 stick_right_x;
#X obj 34 847 trgr-value abs_z trigger_left_toggle 64;
#X obj 34 874 trgr-value abs_z trigger_left;
#X obj 669 392 tgl 20 0 empty empty empty 0 -10 0 12 #fcfcfc #000000 #000000 0 1;
#X obj 32 901 trgr-value abs_rz trigger_right_toggle 64;
#X obj 33 928 trgr-value abs_rz trigger_right;
#X text 300 381 print devices;
#X obj 606 198 r btn;
#X obj 443 242 tgl 20 0 empty empty empty 0 -10 0 12 #fcfcfc #000000 #000000 0 1;
#X obj 606 224 route x y a b;
#X obj 468 220 tgl 20 0 empty empty empty 0 -10 0 12 #fcfcfc #000000 #000000 0 1;
#X obj 468 264 tgl 20 0 empty empty empty 0 -10 0 12 #fcfcfc #000000 #000000 0 1;
#X obj 494 243 tgl 20 0 empty empty empty 0 -10 0 12 #fcfcfc #000000 #000000 0 1;
#X obj 171 255 hsl 60 10 0 127 0 0 empty empty empty -2 -10 0 12 #fcfcfc #000000 #000000 0 1;
#X obj 196 228 vsl 10 60 0 127 0 0 empty empty empty 0 -9 0 12 #fcfcfc #000000 #000000 0 1;
#X obj -3 208 r stick_left_x;
#X obj -3 186 r stick_left_y;
#X obj 357 305 hsl 60 10 0 127 0 0 empty empty empty -2 -10 0 12 #fcfcfc #000000 #000000 0 1;
#X obj 382 278 vsl 10 60 0 127 0 0 empty empty empty 0 -9 0 12 #fcfcfc #000000 #000000 0 1;
#X obj 602 303 r stick_right_x;
#X obj 602 281 r stick_right_y;
#X obj 188 123 vsl 20 40 0 127 0 0 empty empty empty 0 -9 0 12 #fcfcfc #000000 #000000 0 1;
#X obj 216 133 tgl 20 0 empty empty empty 0 -10 0 12 #fcfcfc #000000 #000000 0 1;
#X obj 22 73 r trigger_left;
#X obj 128 73 r trigger_left_toggle;
#X obj 461 124 vsl 20 40 0 127 0 0 empty empty empty 0 -9 0 12 #fcfcfc #000000 #000000 0 1;
#X obj 489 134 tgl 20 0 empty empty empty 0 -10 0 12 #fcfcfc #000000 #000000 0 1;
#X obj 310 74 r trigger_right;
#X obj 423 74 r trigger_right_toggle;
#X obj 355 319 tgl 20 0 empty empty empty 0 -10 0 12 #fcfcfc #000000 #000000 0 1;
#X obj 652 794 s stick_right_btn;
#X obj 526 794 s stick_left_btn;
#X obj 608 153 r stick_right_btn;
#X obj -4 233 r stick_left_btn;
#X obj 214 269 tgl 20 0 empty empty empty 0 -10 0 12 #fcfcfc #000000 #000000 0 1;
#X obj 267 16 r btn;
#X obj 267 41 route lb rb;
#X obj 271 134 tgl 20 0 empty empty empty 0 -10 0 12 #fcfcfc #000000 #000000 0 1;
#X obj 392 134 tgl 20 0 empty empty empty 0 -10 0 12 #fcfcfc #000000 #000000 0 1;
#X obj 421 39 print;
#X msg 809 783 a \$1;
#X msg 899 783 b \$1;
#X msg 996 780 x \$1;
#X msg 1086 780 y \$1;
#X msg 1174 778 lb \$1;
#X msg 1264 778 rb \$1;
#X text 197 105 LT;
#X text 477 103 RT;
#X text 270 114 LB;
#X text 392 114 RB;
#X text 163 205 Left Stick;
#X text 344 256 Right Stick;
#X text 448 242 X;
#X text 473 221 Y;
#X text 473 264 A;
#X text 499 244 B;
#X obj 661 352 r master-onoff;
#X connect 0 0 6 0;
#X connect 0 0 7 0;
#X connect 1 0 0 0;
#X connect 2 0 0 0;
#X connect 3 0 0 0;
#X connect 4 0 0 0;
#X connect 4 0 60 0;
#X connect 5 0 3 0;
#X connect 6 0 55 0;
#X connect 6 0 57 0;
#X connect 6 0 56 0;
#X connect 6 0 54 0;
#X connect 6 0 59 0;
#X connect 6 0 58 0;
#X connect 6 0 61 0;
#X connect 6 0 62 0;
#X connect 7 0 8 0;
#X connect 7 0 9 0;
#X connect 7 0 10 0;
#X connect 7 0 11 0;
#X connect 7 0 12 0;
#X connect 7 0 13 0;
#X connect 7 0 20 0;
#X connect 7 0 21 0;
#X connect 8 0 14 0;
#X connect 9 0 15 0;
#X connect 10 0 16 0;
#X connect 11 0 17 0;
#X connect 12 0 18 0;
#X connect 13 0 19 0;
#X connect 14 0 97 0;
#X connect 15 0 98 0;
#X connect 16 0 99 0;
#X connect 17 0 100 0;
#X connect 18 0 101 0;
#X connect 19 0 102 0;
#X connect 20 0 22 0;
#X connect 21 0 23 0;
#X connect 22 0 88 0;
#X connect 23 0 87 0;
#X connect 31 0 5 0;
#X connect 32 0 2 0;
#X connect 33 0 1 0;
#X connect 38 0 39 0;
#X connect 38 1 39 1;
#X connect 39 0 45 0;
#X connect 40 0 43 0;
#X connect 40 0 44 0;
#X connect 41 0 43 1;
#X connect 42 0 44 1;
#X connect 43 0 41 0;
#X connect 44 0 42 0;
#X connect 45 0 46 0;
#X connect 45 1 40 0;
#X connect 47 0 48 0;
#X connect 49 0 50 0;
#X connect 50 0 52 0;
#X connect 50 1 53 1;
#X connect 52 0 53 0;
#X connect 52 1 51 1;
#X connect 53 0 51 0;
#X connect 60 0 47 0;
#X connect 64 0 66 0;
#X connect 66 0 65 0;
#X connect 66 1 67 0;
#X connect 66 2 68 0;
#X connect 66 3 69 0;
#X connect 72 0 70 0;
#X connect 73 0 71 0;
#X connect 76 0 74 0;
#X connect 77 0 75 0;
#X connect 80 0 78 0;
#X connect 81 0 79 0;
#X connect 84 0 82 0;
#X connect 85 0 83 0;
#X connect 89 0 86 0;
#X connect 90 0 91 0;
#X connect 92 0 93 0;
#X connect 93 0 94 0;
#X connect 93 1 95 0;
#X connect 97 0 24 0;
#X connect 98 0 24 0;
#X connect 99 0 24 0;
#X connect 100 0 24 0;
#X connect 101 0 24 0;
#X connect 102 0 24 0;
#X connect 113 0 4 0;
#X coords 0 -1 1 1 500 300 1 100 100;
