#N canvas 124 55 1788 908 12;
#X obj 640 250 hid;
#X msg 800 190 print;
#X msg 720 190 refresh;
#X msg 640 190 open \$1;
#X obj 870 190 tgl 15 0 empty empty empty 17 7 0 10 #fcfcfc #000000
#000000 0 1;
#X floatatom 640 150 5 0 0 0 - - -, f 5;
#X obj 380 300 route abs;
#X obj 950 290 route key;
#X obj 190 340 route abs_x;
#X obj 280 340 route abs_y;
#X obj 190 370 + 32768;
#X obj 190 399 / 65535;
#X obj 190 457 i;
#X floatatom 190 490 5 0 0 0 - - -, f 5;
#X obj 280 370 + 32768;
#X obj 280 399 / 65535;
#X obj 280 457 i;
#X floatatom 280 490 5 0 0 0 - - -, f 5;
#X obj 390 370 + 32768;
#X obj 390 399 / 65535;
#X obj 390 457 i;
#X floatatom 390 490 5 0 0 0 - - -, f 5;
#X obj 480 370 + 32768;
#X obj 480 399 / 65535;
#X obj 480 457 i;
#X floatatom 480 490 5 0 0 0 - - -, f 5;
#X obj 390 340 route abs_rx;
#X obj 480 340 route abs_ry;
#X obj 190 428 * 127;
#X obj 280 428 * 127;
#X obj 390 428 * 127;
#X obj 480 428 * 127;
#X obj 1160 340 route btn_0;
#X obj 1250 340 route btn_1;
#X obj 1340 340 route btn_2;
#X obj 1430 340 route btn_3;
#X obj 1520 340 route btn_4;
#X obj 1610 340 route btn_5;
#X obj 1700 340 route btn_6;
#X obj 1790 340 route btn_7;
#X obj 1160 370 tgl 15 0 empty empty empty 17 7 0 10 #fcfcfc #000000
#000000 0 1;
#X obj 1250 370 tgl 15 0 empty empty empty 17 7 0 10 #fcfcfc #000000
#000000 0 1;
#X obj 1340 370 tgl 15 0 empty empty empty 17 7 0 10 #fcfcfc #000000
#000000 0 1;
#X obj 1430 370 tgl 15 0 empty empty empty 17 7 0 10 #fcfcfc #000000
#000000 0 1;
#X obj 1520 370 tgl 15 0 empty empty empty 17 7 0 10 #fcfcfc #000000
#000000 0 1;
#X obj 1610 370 tgl 15 0 empty empty empty 17 7 0 10 #fcfcfc #000000
#000000 0 1;
#X obj 1700 370 tgl 15 0 empty empty empty 17 7 0 10 #fcfcfc #000000
#000000 0 1;
#X obj 1790 370 tgl 15 0 empty empty empty 17 7 0 10 #fcfcfc #000000
#000000 0 1;
#X obj 620 340 route abs_z;
#X obj 710 340 route abs_rz;
#X obj 620 370 / 1823;
#X obj 620 399 * 127;
#X obj 620 428 i;
#X floatatom 620 457 5 0 0 0 - - -, f 5;
#X obj 710 370 / 1823;
#X obj 710 399 * 127;
#X obj 710 428 i;
#X floatatom 710 457 5 0 0 0 - - -, f 5;
#X obj 850 340 route btn_13;
#X obj 950 340 route btn_14;
#X obj 850 370 tgl 15 0 empty empty empty 17 7 0 10 #fcfcfc #000000
#000000 0 1;
#X obj 950 369 tgl 15 0 empty empty empty 17 7 0 10 #fcfcfc #000000
#000000 0 1;
#X obj 380 660 s stick;
#X msg 190 560 stick left x \$1;
#X msg 280 590 stick left y \$1;
#X msg 390 560 stick right y \$1;
#X msg 480 590 stick right y \$1;
#X msg 590 510 trigger left \$1;
#X msg 711 510 trigger right \$1;
#X obj 680 580 s trigger;
#X obj 1360 530 s btn;
#X text 1180 370 a;
#X text 1270 370 b;
#X text 1450 370 x;
#X text 1540 370 y;
#X obj 880 480 s stick;
#X msg 850 410 stick left click \$1;
#X msg 950 440 stick right click \$1;
#X text 1720 370 LB;
#X text 1810 370 RB;
#X msg 1160 400 btn a \$1;
#X msg 1250 400 btn b \$1;
#X msg 1430 400 btn x \$1;
#X msg 1520 400 btn y \$1;
#X msg 1700 400 btn lb \$1;
#X msg 1790 400 btn rb \$1;
#X obj 640 100 inlet;
#X text 640 60 dev num[i];
#X obj 720 100 inlet;
#X msg 1530 330 btn lb \$1;
#X text 720 60 refresh[bang];
#X obj 800 100 inlet;
#X text 800 60 print[bang];
#X obj 870 100 inlet;
#X text 870 60 on/off[toggle];
#X connect 0 0 6 0;
#X connect 0 0 7 0;
#X connect 1 0 0 0;
#X connect 2 0 0 0;
#X connect 3 0 0 0;
#X connect 4 0 0 0;
#X connect 5 0 3 0;
#X connect 6 0 8 0;
#X connect 6 0 9 0;
#X connect 6 0 26 0;
#X connect 6 0 27 0;
#X connect 6 0 48 0;
#X connect 6 0 49 0;
#X connect 7 0 32 0;
#X connect 7 0 33 0;
#X connect 7 0 34 0;
#X connect 7 0 35 0;
#X connect 7 0 36 0;
#X connect 7 0 37 0;
#X connect 7 0 38 0;
#X connect 7 0 39 0;
#X connect 7 0 58 0;
#X connect 7 0 59 0;
#X connect 8 0 10 0;
#X connect 9 0 14 0;
#X connect 10 0 11 0;
#X connect 11 0 28 0;
#X connect 12 0 13 0;
#X connect 13 0 63 0;
#X connect 14 0 15 0;
#X connect 15 0 29 0;
#X connect 16 0 17 0;
#X connect 17 0 64 0;
#X connect 18 0 19 0;
#X connect 19 0 30 0;
#X connect 20 0 21 0;
#X connect 21 0 65 0;
#X connect 22 0 23 0;
#X connect 23 0 31 0;
#X connect 24 0 25 0;
#X connect 25 0 66 0;
#X connect 26 0 18 0;
#X connect 27 0 22 0;
#X connect 28 0 12 0;
#X connect 29 0 16 0;
#X connect 30 0 20 0;
#X connect 31 0 24 0;
#X connect 32 0 40 0;
#X connect 33 0 41 0;
#X connect 34 0 42 0;
#X connect 35 0 43 0;
#X connect 36 0 44 0;
#X connect 37 0 45 0;
#X connect 38 0 46 0;
#X connect 39 0 47 0;
#X connect 40 0 80 0;
#X connect 41 0 81 0;
#X connect 48 0 50 0;
#X connect 49 0 54 0;
#X connect 50 0 51 0;
#X connect 51 0 52 0;
#X connect 52 0 53 0;
#X connect 53 0 67 0;
#X connect 54 0 55 0;
#X connect 55 0 56 0;
#X connect 56 0 57 0;
#X connect 57 0 68 0;
#X connect 58 0 60 0;
#X connect 59 0 61 0;
#X connect 60 0 76 0;
#X connect 61 0 77 0;
#X connect 63 0 62 0;
#X connect 64 0 62 0;
#X connect 65 0 62 0;
#X connect 66 0 62 0;
#X connect 67 0 69 0;
#X connect 68 0 69 0;
#X connect 76 0 75 0;
#X connect 77 0 75 0;
#X connect 80 0 70 0;
#X connect 81 0 70 0;
#X connect 82 0 70 0;
#X connect 83 0 70 0;
#X connect 84 0 70 0;
#X connect 85 0 70 0;
#X connect 86 0 5 0;
#X connect 88 0 2 0;
#X connect 91 0 1 0;
#X connect 93 0 4 0;
