#N canvas 11 41 935 996 12;
#X declare -lib hid;
#X obj 640 250 hid;
#X msg 240 270 print;
#X msg 180 270 refresh;
#X msg 110 270 open \$1;
#X obj 240 180 tgl 38 0 empty empty empty 17 7 0 10 #fcfcfc #000000 #000000 0 1;
#X floatatom 110 210 5 0 0 0 - - - 0;
#X obj 12 298 route abs;
#X obj 584 298 route key;
#X obj 794 348 route btn_0;
#X obj 884 348 route btn_1;
#X obj 981 345 route btn_3;
#X obj 1071 345 route btn_4;
#X obj 1159 343 route btn_6;
#X obj 1249 343 route btn_7;
#X obj 794 378 tgl 15 0 empty empty empty 17 7 0 10 #fcfcfc #000000 #000000 0 1;
#X obj 884 378 tgl 15 0 empty empty empty 17 7 0 10 #fcfcfc #000000 #000000 0 1;
#X obj 981 375 tgl 15 0 empty empty empty 17 7 0 10 #fcfcfc #000000 #000000 0 1;
#X obj 1071 375 tgl 15 0 empty empty empty 17 7 0 10 #fcfcfc #000000 #000000 0 1;
#X obj 1159 373 tgl 15 0 empty empty empty 17 7 0 10 #fcfcfc #000000 #000000 0 1;
#X obj 1249 373 tgl 15 0 empty empty empty 17 7 0 10 #fcfcfc #000000 #000000 0 1;
#X obj 484 348 route btn_13;
#X obj 584 348 route btn_14;
#X obj 484 378 tgl 15 0 empty empty empty 17 7 0 10 #fcfcfc #000000 #000000 0 1;
#X obj 584 377 tgl 15 0 empty empty empty 17 7 0 10 #fcfcfc #000000 #000000 0 1;
#X obj 994 538 s btn;
#X text 814 378 a;
#X text 904 378 b;
#X text 1001 375 x;
#X text 1091 375 y;
#X msg 484 413 stick left click \$1;
#X msg 584 448 stick right click \$1;
#X text 1179 373 LB;
#X text 1269 373 RB;
#X msg 794 408 btn a \$1;
#X msg 884 408 btn b \$1;
#X msg 981 405 btn x \$1;
#X msg 1071 405 btn y \$1;
#X msg 1159 403 btn lb \$1;
#X msg 1249 403 btn rb \$1;
#X text 806 44 dev num[i];
#X text 805 88 refresh[bang];
#X text 911 86 print[bang];
#X text 1021 81 on/off[toggle];
#X obj 110 160 bng 24 250 50 0 empty empty empty 17 7 0 10 #fcfcfc #000000 #000000;
#X obj 170 160 bng 24 250 50 0 empty empty empty 17 7 0 10 #fcfcfc #000000 #000000;
#X obj 170 210 bng 24 250 50 0 empty empty empty 17 7 0 10 #fcfcfc #000000 #000000;
#X text 110 140 device;
#X text 170 140 refresh;
#X text 170 190 print;
#X text 240 160 on/off;
#X obj 380 73 declare -lib hid;
#X obj 79 747 t b b;
#X obj 79 772 timer;
#X obj 79 847 nbx 5 18 -1e+37 1e+37 0 0 empty empty empty 0 -10 0 12 #fcfcfc #000000 #000000 0 256;
#X obj 79 924 nbx 5 18 -1e+37 1e+37 0 0 empty empty empty 0 -10 0 12 #fcfcfc #000000 #000000 0 256;
#X obj 198 926 nbx 5 18 -1e+37 1e+37 0 0 empty empty empty 0 -10 0 12 #fcfcfc #000000 #000000 0 256;
#X obj 79 899 min 99999;
#X obj 198 901 max -99999;
#X obj 79 797 sel 0;
#X obj 43 844 bng 20 250 50 0 empty empty empty 0 -10 0 12 #fcfcfc #000000 #000000;
#X obj 657 138 metro 20;
#X obj 657 168 s ctrlr-poll;
#X obj 542 623 r stick;
#X obj 542 648 unpack s 0;
#X obj 542 751 s;
#X obj 542 673 t b s;
#X obj 542 712 float;
#X obj 12 338 ctrlr-value abs_x 62 69 0 stick_left_x;
#X obj 42 365 ctrlr-value abs_y 62 69 1 stick_left_y;
#X obj 95 420 ctrlr-value abs_ry 62 69 1 stick_right_y;
#X obj 71 392 ctrlr-value abs_rx 62 69 0 stick_right_x;
#X obj 21 476 trgr-value abs_z trigger_left_toggle 64;
#X obj 21 503 trgr-value abs_z trigger_left;
#X obj 657 102 tgl 20 0 empty empty empty 0 -10 0 12 #fcfcfc #000000 #000000 0 1;
#X obj 19 530 trgr-value abs_rz trigger_right_toggle 64;
#X obj 20 557 trgr-value abs_rz trigger_right;
#X obj 451 198 s master-onoff;
#X obj 514 488 s stick_button;
#X connect 0 0 6 0;
#X connect 0 0 7 0;
#X connect 1 0 0 0;
#X connect 2 0 0 0;
#X connect 3 0 0 0;
#X connect 4 0 0 0;
#X connect 4 0 76 0;
#X connect 4 0 73 0;
#X connect 5 0 3 0;
#X connect 6 0 68 0;
#X connect 6 0 70 0;
#X connect 6 0 69 0;
#X connect 6 0 71 0;
#X connect 6 0 72 0;
#X connect 6 0 67 0;
#X connect 7 0 8 0;
#X connect 7 0 9 0;
#X connect 7 0 10 0;
#X connect 7 0 11 0;
#X connect 7 0 12 0;
#X connect 7 0 13 0;
#X connect 7 0 20 0;
#X connect 7 0 21 0;
#X connect 8 0 14 0;
#X connect 9 0 15 0;
#X connect 10 0 16 0;
#X connect 11 0 17 0;
#X connect 12 0 18 0;
#X connect 13 0 19 0;
#X connect 14 0 33 0;
#X connect 15 0 34 0;
#X connect 16 0 35 0;
#X connect 17 0 36 0;
#X connect 18 0 37 0;
#X connect 19 0 38 0;
#X connect 20 0 22 0;
#X connect 21 0 23 0;
#X connect 22 0 29 0;
#X connect 23 0 30 0;
#X connect 29 0 77 0;
#X connect 30 0 77 0;
#X connect 33 0 24 0;
#X connect 34 0 24 0;
#X connect 35 0 24 0;
#X connect 36 0 24 0;
#X connect 37 0 24 0;
#X connect 38 0 24 0;
#X connect 43 0 5 0;
#X connect 44 0 2 0;
#X connect 45 0 1 0;
#X connect 51 0 52 0;
#X connect 51 1 52 1;
#X connect 52 0 58 0;
#X connect 53 0 56 0;
#X connect 53 0 57 0;
#X connect 54 0 56 1;
#X connect 55 0 57 1;
#X connect 56 0 54 0;
#X connect 57 0 55 0;
#X connect 58 0 59 0;
#X connect 58 1 53 0;
#X connect 60 0 61 0;
#X connect 62 0 63 0;
#X connect 63 0 65 0;
#X connect 63 1 66 1;
#X connect 65 0 66 0;
#X connect 65 1 64 1;
#X connect 66 0 64 0;
#X connect 73 0 60 0;
#X coords 0 -1 1 1 200 160 1 100 100;
