#N canvas 11 41 744 996 12;
#X obj 160 102 nbx 5 18 -1e+37 1e+37 0 0 empty empty empty 0 -10 0 12 #fcfcfc #000000 #000000 0 256;
#X obj 161 78 expr int(($f1 + 32768) / 515 + 0.5);
#X msg 216 202 64;
#X obj 216 272 nbx 5 18 -1e+37 1e+37 0 0 empty empty empty 0 -10 0 12 #fcfcfc #000000 #000000 0 256;
#X obj 162 142 moses \$2;
#X obj 104 263 r ctrlr-poll;
#X obj 336 175 loadbang;
#X obj 186 301 float;
#X obj 184 434 t b f;
#X obj 184 518 s stick;
#X obj 184 490 pack s 0;
#X obj 161 52 route \$1;
#X obj 163 26 inlet;
#X obj 279 100 loadbang;
#X obj 279 125 float \$3;
#X obj 279 150 - 1;
#X obj 217 173 moses;
#X obj 331 270 loadbang;
#X obj 183 461 symbol \$5;
#X text 428 172 inlet: hid routed through "abs" filter \; \; arguments \; \$1 field name of control \; \$2 minimum int value for centering \; \$3 maximum int value for centering \; \$4 toggle: invert values? \; \$5 delimiter string for stick message \; \; all hid outputs are sent to register stick;
#X obj 169 363 spigot;
#X obj 226 364 spigot;
#X obj 225 391 expr 127 - $f1;
#X obj 331 295 float \$4;
#X obj 248 333 == 0;
#X connect 0 0 4 0;
#X connect 1 0 0 0;
#X connect 2 0 3 0;
#X connect 3 0 7 1;
#X connect 4 0 3 0;
#X connect 4 1 16 0;
#X connect 5 0 7 0;
#X connect 6 0 2 0;
#X connect 7 0 20 0;
#X connect 7 0 21 0;
#X connect 8 0 18 0;
#X connect 8 1 10 1;
#X connect 10 0 9 0;
#X connect 11 0 1 0;
#X connect 12 0 11 0;
#X connect 13 0 14 0;
#X connect 14 0 15 0;
#X connect 15 0 16 1;
#X connect 16 0 2 0;
#X connect 16 1 3 0;
#X connect 17 0 23 0;
#X connect 18 0 10 0;
#X connect 20 0 8 0;
#X connect 21 0 22 0;
#X connect 22 0 8 0;
#X connect 23 0 21 1;
#X connect 23 0 24 0;
#X connect 24 0 20 1;
