#N canvas 132 144 847 563 10;
#X obj 100 102 vsl 15 128 0 1 0 0 empty empty \$1\\\ level 0 -9 0 10 #fcfcfc #000000 #000000 0 1;
#X obj 349 266 pack 0 20;
#X obj 350 287 line~;
#X obj 324 399 *~;
#X obj 349 243 *;
#X obj 350 220 t f f;
#X obj 324 420 outlet~;
#X obj 260 369 inlet~;
#X obj 464 403 *~;
#X obj 464 424 outlet~;
#X obj 353 369 inlet~;
#X obj 576 426 outlet;
#X connect 0 0 5 0;
#X connect 0 0 11 0;
#X connect 1 0 2 0;
#X connect 2 0 3 1;
#X connect 2 0 8 1;
#X connect 3 0 6 0;
#X connect 4 0 1 0;
#X connect 5 0 4 0;
#X connect 5 1 4 1;
#X connect 7 0 3 0;
#X connect 8 0 9 0;
#X connect 10 0 8 0;
#X coords 0 -1 1 1 15 133 2 100 100;
