#N canvas 1931 41 2738 1356 12;
#X obj 15 29 controller;
#X obj 1091 29 granulators/_granulator;
#X obj 35 835 osc~ 440;
#X obj 35 860 *~;
#X obj 125 839 hsl 170 20 0 2 0 0 empty empty empty -2 -10 0 12 #fcfcfc #000000 #000000 0 1;
#X obj 26 931 dac~;
#X obj 181 447 s master-onoff;
#X obj 181 389 tgl 50 0 empty empty empty 0 -10 0 12 #9c00ff #000000 #000000 0 1;
#X obj 88 476 dac~;
#X obj 87 417 *~;
#X obj 36 557 vu 20 200 empty empty -1 -10 0 12 #404040 #000000 1 0;
#X obj 35 511 - 90;
#X obj 35 476 env~;
#X obj 104 571 vsl 20 170 0 3 0 0 empty empty empty 0 -9 0 12 #fcfcfc #000000 #000000 0 1;
#X obj 86 377 r~ master;
#X text 38 804 test;
#X text 131 572 master gain;
#X obj 528 29 looper;
#X obj 34 1046 samplerate~;
#X floatatom 34 1073 7 0 0 0 - - - 0;
#X obj 34 1020 bng 19 250 50 0 empty empty empty 17 7 0 10 #dfdfdf #000000 #000000;
#X obj 34 993 receive pd-dsp-started;
#X obj 34 1097 v samplerate;
#X text 611 458 to use looper: gain up on microphone \, start record when record is stopped \, gainup \, then the contents of the buffer that were just recorded will be played on loop.;
#X connect 2 0 3 0;
#X connect 3 0 5 0;
#X connect 3 0 5 1;
#X connect 4 0 3 1;
#X connect 7 0 6 0;
#X connect 9 0 8 0;
#X connect 9 0 8 1;
#X connect 9 0 12 0;
#X connect 11 0 10 0;
#X connect 12 0 11 0;
#X connect 13 0 9 1;
#X connect 14 0 9 0;
#X connect 18 0 19 0;
#X connect 19 0 22 0;
#X connect 20 0 18 0;
#X connect 21 0 20 0;
