#N canvas 11 41 1355 996 12;
#X obj 40 20 controller;
#X obj 286 51 adc~;
#X text 775 38 audio is always recording into buffer (like a looper) right joystick controls playback speed -1 - 1 - 2 (x) reverb feedback (y) left joystick controls granular fx - grain size (x) \, speed (y) Triggers can be filters buttons can trigger samples;
#X obj 294 251 print~;
#X obj 474 247 tabwrite~ sampler;
#X obj 293 195 tabread~ sampler;
#X obj 346 42 table sampler 144000;
#X obj 470 100 r master-onoff;
#X obj 470 124 sel 1 0;
#X msg 474 155 start;
#X msg 524 154 stop;
#X connect 1 0 4 0;
#X connect 1 1 4 0;
#X connect 5 0 3 0;
#X connect 7 0 8 0;
#X connect 8 0 9 0;
#X connect 8 1 10 0;
#X connect 9 0 4 0;
#X connect 10 0 4 0;
