#N canvas 132 144 847 563 10;
#X obj 100 102 vsl 15 128 0 1 0 0 empty empty \$1\\\ level 0 -9 0 10 #fcfcfc #000000 #000000 0 1;
#X obj 349 266 pack 0 20;
#X obj 350 287 line~;
#X obj 324 399 *~;
#X obj 349 243 *;
#X obj 350 220 t f f;
#X obj 324 420 outlet~;
#X obj 260 369 inlet~;
#X obj 464 403 *~;
#X obj 464 424 outlet~;
#X obj 353 369 inlet~;
#X obj 576 426 outlet;
#X obj 92 429 env~;
#X obj 174 431 env~;
#X obj 92 452 - 100;
#X obj 173 454 - 100;
#X obj 92 473 clip -100 0;
#X obj 173 475 clip -100 0;
#X obj 92 494 s \$0-meter-l;
#X obj 171 495 s \$0-meter-r;
#X obj 121 106 vu 16 120 \$0-meter-l empty -1 -8 0 10 #404040 #000000 1 0;
#X obj 169 106 vu 16 120 \$0-meter-r empty -1 -8 0 10 #404040 #000000 0 0;
#X connect 0 0 5 0;
#X connect 0 0 11 0;
#X connect 1 0 2 0;
#X connect 2 0 3 1;
#X connect 2 0 8 1;
#X connect 3 0 6 0;
#X connect 3 0 12 0;
#X connect 4 0 1 0;
#X connect 5 0 4 0;
#X connect 5 1 4 1;
#X connect 7 0 3 0;
#X connect 8 0 9 0;
#X connect 8 0 13 0;
#X connect 10 0 8 0;
#X connect 12 0 14 0;
#X connect 13 0 15 0;
#X connect 14 0 16 0;
#X connect 15 0 17 0;
#X connect 16 0 18 0;
#X connect 17 0 19 0;
#X coords 0 -1 1 1 90 133 2 100 100;
