#N canvas 2886 41 943 996 12;
#X obj 41 34 soundfiler;
#N canvas 0 50 450 250 (subpatch) 0;
#X array sampler 510468 float 2;
#X coords 0 1 510468 -1 200 140 1;
#X restore 105 168 graph;
#X obj 41 -20 loadbang;
#X obj 278 -58 r sample-vol;
#X obj 311 136 vsl 20 170 0 1 0 0 empty empty empty 0 -9 0 12 #fcfcfc #000000 #000000 0 1;
#X obj 339 107 vu 20 200 empty empty -1 -10 0 12 #404040 #000000 1 0;
#X obj 445 103 - 90;
#X obj 445 78 env~;
#X obj 446 28 *~;
#X obj 447 -65 r sample-play;
#X obj 543 70 throw~ master;
#X obj 447 -12 tabplay~ sampler;
#X obj 447 -40 sel 1 0;
#X obj 143 -21 bng 20 250 50 0 empty empty empty 0 -10 0 12 #fcfcfc #000000 #000000;
#X msg 41 7 read -resize ./waves.wav sampler;
#X obj 284 143 bng 20 250 50 0 empty empty empty 0 -10 0 12 #fcfcfc #000000 #000000;
#X text 249 144 play;
#X floatatom 320 -34 5 0 0 0 - - - 0;
#X floatatom 320 26 5 0 0 0 - - - 0;
#X obj 320 -4 / 127;
#X obj 185 79 s sample-play;
#X obj 185 53 float 1;
#X connect 2 0 14 0;
#X connect 3 0 17 0;
#X connect 4 0 8 1;
#X connect 6 0 5 1;
#X connect 7 0 6 0;
#X connect 8 0 7 0;
#X connect 8 0 10 0;
#X connect 9 0 12 0;
#X connect 11 0 8 0;
#X connect 12 0 11 0;
#X connect 12 0 15 0;
#X connect 13 0 14 0;
#X connect 14 0 0 0;
#X connect 15 0 21 0;
#X connect 17 0 19 0;
#X connect 18 0 4 0;
#X connect 19 0 18 0;
#X connect 21 0 20 0;
#X coords 0 -1 1 1 300 215 1 100 100;
