#N canvas 11 561 729 476 12;
#X obj 160 102 nbx 5 18 -1e+37 1e+37 0 0 empty empty empty 0 -10 0 12 #fcfcfc #000000 #000000 0 256;
#X obj 245 339 nbx 5 18 -1e+37 1e+37 0 0 empty empty empty 0 -10 0 12 #fcfcfc #000000 #000000 0 256;
#X obj 90 266 r ctrlr-poll;
#X obj 178 402 float;
#X obj 184 434 t b f;
#X obj 184 490 pack s 0;
#X obj 161 52 route \$1;
#X obj 163 26 inlet;
#X obj 340 123 loadbang;
#X obj 183 461 symbol \$2;
#X text 240 600 inlet: hid routed through "abs" filter \; \; arguments \; \$1 field name of control \; \$2 delimiter string for trgr message \; \$3 toggle mode? if non-zero \, will be the threshold \; all trgr outputs are sent to register trgr;
#X obj 173 220 spigot;
#X obj 246 221 spigot;
#X obj 295 176 == 0;
#X obj 244 276 * 127;
#X obj 184 518 s trgr;
#X obj 340 148 float \$3;
#X obj 247 249 >= \$3;
#X obj 162 79 expr int($f1 / 8 + 0.5);
#X obj 242 442;
#X connect 0 0 11 0;
#X connect 0 0 12 0;
#X connect 1 0 3 1;
#X connect 2 0 3 0;
#X connect 3 0 4 0;
#X connect 4 0 9 0;
#X connect 4 1 5 1;
#X connect 5 0 15 0;
#X connect 6 0 18 0;
#X connect 7 0 6 0;
#X connect 8 0 16 0;
#X connect 9 0 5 0;
#X connect 11 0 1 0;
#X connect 12 0 17 0;
#X connect 13 0 11 1;
#X connect 14 0 1 0;
#X connect 16 0 13 0;
#X connect 16 0 12 1;
#X connect 17 0 14 0;
#X connect 18 0 0 0;
