#N canvas 99 22 1294 820 10;
#X obj 364 734 *~;
#X obj 682 245 inlet;
#X obj 591 166 inlet;
#X obj 384 95 inlet;
#X obj 226 295 float 0;
#X text 288 665 generate envelope;
#X obj 217 562 vline~;
#X obj 268 350 +;
#X msg 217 536 \$1 \, \$2 \$3;
#X obj 367 161 expr pow (2 \, $f1 / 12);
#X text 374 115 transposition (semitones);
#X text 297 192 start point milliseconds;
#X text 602 188 grain duration milliseconds;
#X obj 227 321 t f f;
#X obj 203 607 dbtorms;
#X obj 638 354 inlet;
#X text 763 364 pan -100 to 100;
#X obj 778 292 inlet;
#X obj 240 72 r grains-off;
#X msg 197 666 \$3 \$1 \$2 \$4;
#X obj 196 646 pack 0 0 0 1;
#X msg 262 697 10;
#X obj 233 108 t b b;
#X msg 146 142 stop;
#X obj 217 512 pack 0 0 20;
#X floatatom 271 487 5 0 0 0 - - -;
#X floatatom 217 487 5 0 0 0 - - -;
#X floatatom 318 488 5 0 0 0 - - -;
#X obj 282 385 t f f;
#X obj 288 441 -;
#X obj 217 461 +;
#X obj 251 190 inlet;
#N canvas 453 72 843 508 envelope-limiter 0;
#X obj 180 216 t b f;
#X obj 133 167 t f f f;
#X text 243 372 limit down time to (grain size - up time);
#X obj 162 293 -;
#X obj 162 320 t b f;
#X obj 146 403 -;
#X text 247 405 calculate delay time for down (grain size - down time)
;
#X obj 162 374 clip 10 10;
#X obj 181 194 - 10;
#X text 258 264 limit up time: 10 to (grain size - 10);
#X obj 131 78 inlet;
#X obj 239 74 inlet;
#X text 121 53 bang-it-out;
#X text 235 54 grain-dur (requested);
#X obj 416 78 inlet;
#X text 412 58 rise-time (requested);
#X obj 585 76 inlet;
#X text 581 56 fall-time (requested);
#X obj 145 433 outlet;
#X obj 303 439 outlet;
#X obj 224 435 outlet;
#X text 299 464 rise;
#X text 224 461 fall;
#X text 144 458 sustain;
#X obj 179 264 clip 10 10;
#X obj 181 241 float;
#X obj 163 346 float;
#X obj 133 119 float;
#X connect 0 0 25 0;
#X connect 0 1 24 2;
#X connect 1 0 5 0;
#X connect 1 1 3 0;
#X connect 1 2 8 0;
#X connect 3 0 4 0;
#X connect 4 0 26 0;
#X connect 4 1 7 2;
#X connect 5 0 18 0;
#X connect 7 0 5 1;
#X connect 7 0 20 0;
#X connect 8 0 0 0;
#X connect 10 0 27 0;
#X connect 11 0 27 1;
#X connect 14 0 25 1;
#X connect 16 0 26 1;
#X connect 24 0 3 1;
#X connect 24 0 19 0;
#X connect 25 0 24 0;
#X connect 26 0 7 0;
#X connect 27 0 1 0;
#X restore 551 552 pd envelope-limiter;
#X text 725 246 envelope rise time;
#X text 822 292 envelope fall time;
#X text 159 585 level;
#X obj 294 275 float 1;
#X obj 193 -34 t b f;
#X obj 254 -94 route bang;
#X floatatom 549 617 5 0 0 0 - - -;
#X floatatom 589 617 5 0 0 0 - - -;
#X floatatom 630 615 5 0 0 0 - - -;
#X obj 301 323 *;
#X obj 191 44 s getval-\$0;
#X obj 360 712 tabread4~;
#X msg 1006 644 set \$1;
#X obj 975 613 t b s;
#X floatatom 834 706 25 0 0 0 - - -;
#X obj 279 411 clip 0 3.40282e+038;
#X obj 205 582 settingizer \$1-level \$4 1 127 getval-\$0;
#X obj 247 211 settingizer \$1-onset \$5 0 3.40282e+038 getval-\$0
;
#X obj 367 132 settingizer \$1-transp \$6 -3.40282e+038 3.40282e+038
getval-\$0;
#X obj 593 208 settingizer \$1-dur \$7 20 3.40282e+038 getval-\$0;
#X obj 690 268 settingizer \$1-rise \$9 10 3.40282e+038 getval-\$0
;
#X obj 759 330 settingizer \$1-fall \$10 10 3.40282e+038 getval-\$0
;
#X obj 977 574 symbol \$11;
#X obj 362 253 / 1000;
#X obj 253 268 *;
#X obj 325 303 *;
#X obj 361 232 samplerate~;
#X obj 138 18 t b b b b;
#X obj 1001 536 r \$1-tablename;
#X obj 129 173 del 10;
#X obj 36 747 sin-env;
#X obj 766 466 float;
#X obj -17 -102 poly-voice-alloc \$2 \$3;
#X obj 328 -53 unpack 0 0 0 0 0 0 0 0 s;
#X text 329 -72 level onset transp dur pan rise fall aux tablename
;
#X obj 362 763 aux_pan \$2 \$10;
#X obj 157 560 inlet;
#X obj 894 470 inlet;
#X text 960 489 aux lvl;
#X obj 970 509 settingizer \$1-aux \$4 1 127 getval-\$0;
#X obj 130 199 t b b b b b b;
#X obj 957 536 float;
#X text 883 3 arguments \; 1 receive-name-stem \; 2 poly-voice-stem-symbol
\; 3 voice-number \; 4 level \; 5 onset \; 6 transp \; 7 dur \; 8 pan
\; 9 rise \; 10 fall \; 11 aux \; 12 table;
#X obj 737 380 settingizer \$1-pan \$8 -100 100 getval-\$0;
#X obj 1047 464 inlet;
#X text 313 430 keep end-point of delay line within bounds \; reset
start point if necessary to maintain dur \; DISABLED;
#X obj 876 680 array size;
#X connect 0 0 68 0;
#X connect 1 0 53 0;
#X connect 2 0 52 0;
#X connect 3 0 51 0;
#X connect 4 0 13 0;
#X connect 6 0 44 0;
#X connect 7 0 25 0;
#X connect 8 0 6 0;
#X connect 9 0 36 1;
#X connect 13 0 30 0;
#X connect 13 1 7 0;
#X connect 14 0 20 3;
#X connect 15 0 76 0;
#X connect 17 0 54 0;
#X connect 18 0 22 0;
#X connect 19 0 63 0;
#X connect 20 0 19 0;
#X connect 21 0 63 2;
#X connect 22 0 23 0;
#X connect 22 1 21 0;
#X connect 23 0 62 0;
#X connect 24 0 8 0;
#X connect 25 0 24 1;
#X connect 26 0 24 0;
#X connect 27 0 24 2;
#X connect 28 0 48 0;
#X connect 28 1 29 1;
#X connect 29 0 30 1;
#X connect 30 0 26 0;
#X connect 31 0 50 0;
#X connect 32 0 20 0;
#X connect 32 0 39 0;
#X connect 32 1 20 1;
#X connect 32 1 40 0;
#X connect 32 2 20 2;
#X connect 32 2 41 0;
#X connect 36 0 42 0;
#X connect 37 0 60 0;
#X connect 37 1 49 0;
#X connect 38 0 60 0;
#X connect 38 1 66 0;
#X connect 42 0 7 1;
#X connect 44 0 0 0;
#X connect 45 0 44 0;
#X connect 46 0 79 0;
#X connect 46 1 45 0;
#X connect 46 1 79 1;
#X connect 47 0 48 2;
#X connect 47 0 50 2;
#X connect 48 0 29 0;
#X connect 48 0 25 0;
#X connect 49 0 14 0;
#X connect 50 0 57 0;
#X connect 51 0 9 0;
#X connect 52 0 32 1;
#X connect 52 0 27 0;
#X connect 52 0 58 0;
#X connect 53 0 32 2;
#X connect 54 0 32 3;
#X connect 55 0 46 0;
#X connect 56 0 58 1;
#X connect 56 0 57 1;
#X connect 57 0 4 1;
#X connect 58 0 42 1;
#X connect 59 0 56 0;
#X connect 60 0 62 0;
#X connect 60 1 22 0;
#X connect 60 2 43 0;
#X connect 60 3 59 0;
#X connect 61 0 55 1;
#X connect 62 0 73 0;
#X connect 63 0 0 1;
#X connect 63 1 65 1;
#X connect 64 0 68 1;
#X connect 65 0 38 0;
#X connect 66 0 37 0;
#X connect 66 0 60 0;
#X connect 66 1 50 0;
#X connect 66 2 51 0;
#X connect 66 3 52 0;
#X connect 66 4 76 0;
#X connect 66 5 53 0;
#X connect 66 6 54 0;
#X connect 66 7 72 0;
#X connect 66 8 55 1;
#X connect 69 0 49 0;
#X connect 70 0 72 0;
#X connect 72 0 74 1;
#X connect 73 0 4 0;
#X connect 73 1 32 0;
#X connect 73 2 36 0;
#X connect 73 3 55 0;
#X connect 73 4 64 0;
#X connect 73 5 74 0;
#X connect 74 0 68 2;
#X connect 76 0 64 1;
#X connect 77 0 55 1;
#X connect 79 0 47 0;
