#N canvas 49 58 672 635 10;
#X obj 215 72 inlet;
#X obj 90 70 inlet~;
#X obj 215 182 expr sin (($f1 + 100) / 400 * 3.141592654);
#X obj 134 229 expr cos (($f1 + 100) / 400 * 3.141592654);
#X obj 230 339 *~ 0.707107;
#X obj 103 336 *~ 0.707107;
#X obj 448 72 loadbang;
#X obj 449 106 float \$2;
#X obj 221 140 clip -100 100;
#X obj 174 517 outlet~;
#X text 240 52 -100 = source1 \, 100 = source2 \, 0 = balanced mix
;
#X text 137 25 inlets: signal1 signal2 source-set;
#X obj 175 411 +~;
#X obj 146 75 inlet~;
#X text 348 340 argument: default-value;
#X connect 0 0 8 0;
#X connect 1 0 5 0;
#X connect 2 0 4 1;
#X connect 3 0 5 1;
#X connect 4 0 12 1;
#X connect 5 0 12 0;
#X connect 6 0 7 0;
#X connect 7 0 8 0;
#X connect 8 0 2 0;
#X connect 8 0 3 0;
#X connect 12 0 9 0;
#X connect 13 0 4 0;
