#N canvas 323 44 920 753 10;
#X obj 186 159 float \$2;
#X obj 172 73 float \$1;
#X obj 263 621 / \$3;
#X floatatom 156 714 0 0 0 0 - - -;
#X obj 159 691 + 0;
#X obj 189 284 t f f;
#X obj 190 308 * 2;
#X floatatom 344 479 0 0 0 0 - - -;
#X obj 56 21 inlet;
#X obj 270 66 inlet;
#X obj 551 170 inlet;
#X obj 155 748 outlet;
#X obj 215 369 float \$3;
#X obj 230 419 until;
#X obj 383 556 float;
#X obj 349 592 +;
#X obj 221 586 float;
#X obj 345 518 t f b;
#X msg 433 386 0;
#X text 55 3 bang/float: trigger \, or set central value and trigger
;
#X text 264 46 range +/-;
#X text 551 152 narrowness of window;
#X text 210 749 semi-random value;
#X obj 189 336 t b b f b;
#X obj 344 553 - 0;
#X floatatom 294 699 25 0 0 0 - - -;
#X msg 121 72 0;
#X obj 229 445 float_random;
#X obj 371 44 loadbang;
#X obj 267 160 expr 0.01 * abs ($f1);
#X text 476 463 arg 1: central value \; arg 2: range +/- \; arg 3:
narrowness of window \; arg 4: non-zero arg makes range value percent
of central value;
#X obj 366 71 float \$4;
#X obj 328 111 sel 0;
#X obj 733 69 inlet;
#X text 727 49 percent-scaling on/off;
#X obj 219 393 expr int(max($f1 \, 1)+ 0.5);
#X obj 168 111 t f b b f;
#X obj 237 238 float 1;
#X obj 190 259 *;
#X obj 331 202 spigot;
#X msg 328 136 1;
#X connect 0 0 38 0;
#X connect 1 0 36 0;
#X connect 2 0 25 0;
#X connect 2 0 4 1;
#X connect 3 0 11 0;
#X connect 4 0 3 0;
#X connect 5 0 6 0;
#X connect 5 1 24 1;
#X connect 6 0 23 0;
#X connect 7 0 17 0;
#X connect 8 0 1 0;
#X connect 9 0 0 1;
#X connect 10 0 2 1;
#X connect 10 0 12 1;
#X connect 12 0 35 0;
#X connect 13 0 27 0;
#X connect 14 0 15 1;
#X connect 15 0 14 1;
#X connect 15 0 16 1;
#X connect 16 0 2 0;
#X connect 17 0 24 0;
#X connect 17 1 14 0;
#X connect 18 0 14 1;
#X connect 23 0 16 0;
#X connect 23 1 12 0;
#X connect 23 2 27 1;
#X connect 23 3 18 0;
#X connect 24 0 15 0;
#X connect 26 0 36 0;
#X connect 27 0 7 0;
#X connect 28 0 31 0;
#X connect 29 0 39 0;
#X connect 31 0 32 0;
#X connect 31 0 39 1;
#X connect 32 0 40 0;
#X connect 33 0 32 0;
#X connect 33 0 39 1;
#X connect 35 0 13 0;
#X connect 36 0 4 0;
#X connect 36 1 0 0;
#X connect 36 2 37 0;
#X connect 36 3 29 0;
#X connect 37 0 38 1;
#X connect 38 0 5 0;
#X connect 39 0 37 1;
#X connect 40 0 37 1;
