#N canvas 596 93 868 529 10;
#X obj 176 170 tgl 30 0 empty empty start/stop 0 -9 0 10 -261234 -1
-1 0 1;
#X obj 101 170 bng 30 250 50 0 empty empty open_file 0 -9 0 10 -258113
-1 -1;
#X obj 254 170 tgl 30 0 empty empty loop 0 -9 0 10 -261234 -1 -1 0
1;
#X msg 454 18 loop \$1;
#X obj 575 12 inlet;
#X obj 386 143 openpanel;
#X obj 386 264 list trim;
#X obj 384 346 list trim;
#X obj 384 412 outlet~;
#X obj 385 293 list append 0;
#X obj 384 319 list prepend open;
#X obj 430 220 list append;
#X obj 645 88 route 0;
#X obj 620 122 t b b;
#X msg 646 210 0;
#X obj 603 347 spigot;
#X obj 604 278 t b b;
#X obj 602 379 del 50;
#X msg 602 400 1;
#X obj 682 459 outlet;
#X obj 308 62 loadbang;
#X obj 309 143 sel 0;
#X obj 517 206 samplerate~;
#X obj 536 180 t b f;
#X obj 517 236 expr $f1 * $f2 / 1000;
#X obj 564 49 route open loop from;
#X obj 523 123 t b f;
#X obj 388 106 route bang;
#X obj 460 153 unpack s 0;
#X obj 309 87 symbol \$2;
#X symbolatom 100 116 26 0 0 2 _open_file - -;
#X msg 537 17 open;
#X obj 223 101 cnv 14 60 12 empty empty \$1 2 7 0 14 -228856 -1 0;
#X floatatom 101 143 15 0 0 2 _start_from - -;
#X obj 384 384 readsf~ 2 1e+06;
#X obj 449 434 outlet~;
#X connect 0 0 25 0;
#X connect 1 0 31 0;
#X connect 2 0 3 0;
#X connect 3 0 25 0;
#X connect 4 0 25 0;
#X connect 5 0 6 0;
#X connect 5 0 11 1;
#X connect 6 0 9 0;
#X connect 7 0 34 0;
#X connect 9 0 10 0;
#X connect 10 0 7 0;
#X connect 11 0 6 0;
#X connect 12 0 13 0;
#X connect 12 1 34 0;
#X connect 13 0 11 0;
#X connect 13 1 14 0;
#X connect 14 0 34 0;
#X connect 15 0 17 0;
#X connect 16 0 15 0;
#X connect 16 1 11 0;
#X connect 17 0 18 0;
#X connect 18 0 34 0;
#X connect 20 0 29 0;
#X connect 21 1 6 0;
#X connect 21 1 11 1;
#X connect 22 0 24 0;
#X connect 23 0 22 0;
#X connect 23 1 24 1;
#X connect 24 0 9 1;
#X connect 25 0 27 0;
#X connect 25 1 15 1;
#X connect 25 2 26 0;
#X connect 25 3 12 0;
#X connect 26 0 11 0;
#X connect 26 1 23 0;
#X connect 27 0 5 0;
#X connect 27 1 28 0;
#X connect 28 0 11 1;
#X connect 28 0 6 0;
#X connect 28 1 23 0;
#X connect 29 0 21 0;
#X connect 30 0 28 0;
#X connect 31 0 25 0;
#X connect 33 0 26 0;
#X connect 34 0 8 0;
#X connect 34 1 35 0;
#X connect 34 2 16 0;
#X connect 34 2 19 0;
#X coords 0 -1 1 1 184 100 2 100 100;
