#N canvas 499 326 630 412 10;
#X obj 102 110 tgl 18 0 empty empty LEARN -2 -5 0 8 #fcfcfc #000000 #000000 0 1;
#N canvas 750 170 626 628 verify 0;
#X obj 278 38 symbol \$1;
#X obj 256 126 route 1 2 3 4 5 6;
#X obj 278 10 loadbang;
#X obj 103 193 route 1 0;
#X obj 70 567 print;
#X obj 152 55 r \$0-type;
#X obj 224 56 r \$0-v1;
#X obj 359 59 r \$0-v2;
#X obj 426 61 r \$0-v3;
#X obj 256 94 pack 0 0 s 0 0;
#X msg 157 312 midi-learn \$2: control-change ctl-id \$1 channel \$3 match \$4;
#X msg 161 292 midi-learn \$1: note-off channel \$2 match \$3;
#X obj 52 222 list prepend;
#X obj 130 223 list prepend;
#X msg 155 271 midi-learn \$1: note-on channel \$2 match \$3;
#X msg 163 333 midi-learn \$2: program-change channel \$1 match \$3 match \$4;
#X msg 169 354 midi-learn \$2: pitch-bend channel \$1 match \$3;
#X msg 174 375 midi-learn \$2: after-touch channel \$1 match \$3;
#X msg 175 396 midi-learn \$2: poly-touch note \$1 channel \$3 match \$4;
#X obj 366 470 r \$0-max;
#X obj 299 468 r \$0-min;
#X obj 451 465 symbol \$1;
#X obj 451 437 loadbang;
#X obj 297 508 pack 0 s;
#X obj 361 504 pack 0 s;
#X msg 197 533 midi-learn \$2: min \$1;
#X msg 335 536 midi-learn \$2: max \$1;
#X connect 0 0 9 2;
#X connect 1 0 3 0;
#X connect 1 1 10 0;
#X connect 1 2 15 0;
#X connect 1 3 16 0;
#X connect 1 4 17 0;
#X connect 1 5 18 0;
#X connect 2 0 0 0;
#X connect 3 0 12 0;
#X connect 3 1 13 0;
#X connect 5 0 9 0;
#X connect 6 0 9 1;
#X connect 7 0 9 3;
#X connect 8 0 9 4;
#X connect 9 0 1 0;
#X connect 10 0 4 0;
#X connect 11 0 4 0;
#X connect 12 0 14 0;
#X connect 13 0 11 0;
#X connect 14 0 4 0;
#X connect 15 0 4 0;
#X connect 16 0 4 0;
#X connect 17 0 4 0;
#X connect 18 0 4 0;
#X connect 19 0 24 0;
#X connect 20 0 23 0;
#X connect 21 0 23 1;
#X connect 21 0 24 1;
#X connect 22 0 21 0;
#X connect 23 0 25 0;
#X connect 24 0 26 0;
#X connect 25 0 4 0;
#X connect 26 0 4 0;
#X restore 313 31 pd verify;
#X text -122 -75 argument: name (for setting verification and saving);
#N canvas 336 27 756 766 ctlin 0;
#X obj 229 735 outlet;
#X floatatom 138 138 0 0 0 0 - - - 0;
#X floatatom 196 146 0 0 0 0 - - - 0;
#X obj 263 170 ==;
#X obj 229 661 spigot;
#X obj 213 109 spigot;
#X obj 71 351 spigot;
#X obj 184 216 spigot;
#X obj 139 268 ==;
#X obj 148 38 ctlin;
#X obj 229 700 spigot;
#X obj 287 656 == 2;
#X msg 70 325 2;
#X msg 152 416 0;
#X obj 74 378 t f b;
#X obj 69 424 s \$0-type;
#X obj 152 439 s \$0-set-spigot;
#X obj 287 620 r \$0-type;
#X obj 361 621 r \$0-type-set;
#X obj 189 244 s \$0-v1;
#X obj 245 245 r \$0-v1-set;
#X obj 276 140 s \$0-v2;
#X obj 332 138 r \$0-v2-set;
#X obj 631 88 r \$0-set-spigot;
#X obj 73 499 spigot;
#X obj 23 228 nbx 5 14 -1e+37 1e+37 0 0 empty empty empty 0 -8 0 10 #fcfcfc #000000 #000000 0 256;
#X floatatom 482 572 0 0 0 0 - - - 0;
#X obj 547 597 ==;
#X obj 497 536 spigot;
#X obj 494 747 outlet;
#X obj 494 712 spigot;
#X obj 560 567 s \$0-v3;
#X obj 616 565 r \$0-v3-set;
#X obj 85 100 t f b f;
#X obj 494 673 sel 1;
#X connect 1 0 8 0;
#X connect 1 0 7 0;
#X connect 2 0 3 0;
#X connect 3 0 4 1;
#X connect 4 0 10 0;
#X connect 5 0 3 1;
#X connect 5 0 21 0;
#X connect 6 0 14 0;
#X connect 7 0 8 1;
#X connect 7 0 19 0;
#X connect 8 0 24 1;
#X connect 9 0 33 0;
#X connect 9 1 1 0;
#X connect 9 2 2 0;
#X connect 9 2 5 0;
#X connect 10 0 0 0;
#X connect 11 0 10 1;
#X connect 11 0 30 1;
#X connect 12 0 6 0;
#X connect 13 0 16 0;
#X connect 14 0 15 0;
#X connect 14 1 13 0;
#X connect 17 0 11 0;
#X connect 18 0 11 0;
#X connect 20 0 8 1;
#X connect 22 0 3 1;
#X connect 23 0 5 1;
#X connect 23 0 6 1;
#X connect 23 0 7 1;
#X connect 23 0 28 1;
#X connect 24 0 4 0;
#X connect 24 0 26 0;
#X connect 25 0 24 0;
#X connect 26 0 27 0;
#X connect 27 0 34 0;
#X connect 28 0 27 1;
#X connect 28 0 31 0;
#X connect 30 0 29 0;
#X connect 32 0 27 1;
#X connect 33 0 25 0;
#X connect 33 1 12 0;
#X connect 33 2 28 0;
#X connect 34 0 30 0;
#X restore -74 -51 pd ctlin;
#N canvas 116 27 756 766 notein 0;
#X obj 229 735 outlet;
#X floatatom 141 145 0 0 0 0 - - - 0;
#X floatatom 47 198 0 0 0 0 - - - 0;
#X floatatom 196 146 0 0 0 0 - - - 0;
#X obj 76 494 spigot;
#X obj 263 170 ==;
#X obj 224 548 spigot;
#X obj 213 109 spigot;
#X obj 71 351 spigot;
#X obj 140 175 > 0;
#X obj 184 216 spigot;
#X obj 139 268 ==;
#X obj 229 700 spigot;
#X obj 287 656 == 1;
#X obj 148 38 notein;
#X obj 143 523 pack;
#X msg 70 325 1;
#X msg 152 416 0;
#X obj 74 378 t f b;
#X obj 631 88 r \$0-set-spigot;
#X obj 332 138 r \$0-v2-set;
#X obj 276 140 s \$0-v2;
#X obj 189 244 s \$0-v1;
#X obj 259 248 r \$0-v1-set;
#X obj 69 434 s \$0-type;
#X obj 152 439 s \$0-set-spigot;
#X obj 287 620 r \$0-type;
#X obj 361 621 r \$0-type-set;
#X floatatom 424 591 0 0 0 0 - - - 0;
#X obj 491 615 ==;
#X obj 441 554 spigot;
#X obj 504 585 s \$0-v3;
#X obj 560 583 r \$0-v3-set;
#X obj 459 735 outlet;
#X obj 459 700 spigot;
#X obj 98 113 t f b f;
#X obj 483 650 sel 1;
#X connect 1 0 9 0;
#X connect 2 0 4 0;
#X connect 3 0 5 0;
#X connect 4 0 15 0;
#X connect 5 0 6 1;
#X connect 6 0 12 0;
#X connect 6 0 28 0;
#X connect 7 0 5 1;
#X connect 7 0 21 0;
#X connect 8 0 18 0;
#X connect 9 0 10 0;
#X connect 9 0 11 0;
#X connect 10 0 11 1;
#X connect 10 0 22 0;
#X connect 11 0 4 1;
#X connect 12 0 0 0;
#X connect 13 0 12 1;
#X connect 13 0 34 1;
#X connect 14 0 35 0;
#X connect 14 1 1 0;
#X connect 14 1 15 1;
#X connect 14 2 3 0;
#X connect 14 2 7 0;
#X connect 15 0 6 0;
#X connect 16 0 8 0;
#X connect 17 0 25 0;
#X connect 18 0 24 0;
#X connect 18 1 17 0;
#X connect 19 0 7 1;
#X connect 19 0 8 1;
#X connect 19 0 10 1;
#X connect 19 0 30 1;
#X connect 20 0 5 1;
#X connect 23 0 11 1;
#X connect 26 0 13 0;
#X connect 27 0 13 0;
#X connect 28 0 29 0;
#X connect 29 0 36 0;
#X connect 30 0 29 1;
#X connect 30 0 31 0;
#X connect 32 0 29 1;
#X connect 34 0 33 0;
#X connect 35 0 2 0;
#X connect 35 1 16 0;
#X connect 35 2 30 0;
#X connect 36 0 34 0;
#X restore -138 -51 pd notein;
#N canvas 108 26 756 766 bendin 0;
#X obj 229 735 outlet;
#X floatatom 141 145 0 0 0 0 - - - 0;
#X floatatom 47 198 0 0 0 0 - - - 0;
#X obj 54 477 spigot;
#X obj 71 351 spigot;
#X obj 184 216 spigot;
#X obj 139 268 ==;
#X obj 229 700 spigot;
#X obj 148 38 bendin;
#X obj 329 654 == 4;
#X msg 70 325 4;
#X obj 189 244 s \$0-v1;
#X obj 245 246 r \$0-v1-set;
#X obj 458 191 r \$0-set-spigot;
#X msg 152 416 0;
#X obj 74 378 t f b;
#X obj 69 434 s \$0-type;
#X obj 152 439 s \$0-set-spigot;
#X obj 328 618 r \$0-type;
#X obj 402 619 r \$0-type-set;
#X obj 55 505 / 128;
#X floatatom 424 591 0 0 0 0 - - - 0;
#X obj 491 615 ==;
#X obj 441 554 spigot;
#X obj 491 742 outlet;
#X obj 491 707 spigot;
#X obj 492 654 sel 1;
#X obj 98 113 t f b f;
#X obj 504 585 s \$0-v2;
#X obj 560 583 r \$0-v2-set;
#X connect 1 0 5 0;
#X connect 1 0 6 0;
#X connect 2 0 3 0;
#X connect 3 0 20 0;
#X connect 3 0 21 0;
#X connect 4 0 15 0;
#X connect 5 0 6 1;
#X connect 5 0 11 0;
#X connect 6 0 3 1;
#X connect 7 0 0 0;
#X connect 8 0 27 0;
#X connect 8 1 1 0;
#X connect 9 0 7 1;
#X connect 9 0 25 1;
#X connect 10 0 4 0;
#X connect 12 0 6 1;
#X connect 13 0 4 1;
#X connect 13 0 5 1;
#X connect 13 0 23 1;
#X connect 14 0 17 0;
#X connect 15 0 16 0;
#X connect 15 1 14 0;
#X connect 18 0 9 0;
#X connect 19 0 9 0;
#X connect 20 0 7 0;
#X connect 21 0 22 0;
#X connect 22 0 26 0;
#X connect 23 0 22 1;
#X connect 23 0 28 0;
#X connect 25 0 24 0;
#X connect 26 0 25 0;
#X connect 27 0 2 0;
#X connect 27 1 10 0;
#X connect 27 2 23 0;
#X connect 29 0 22 1;
#X restore 37 -49 pd bendin;
#N canvas 336 27 756 766 touchin 0;
#X obj 229 735 outlet;
#X floatatom 141 145 0 0 0 0 - - - 0;
#X floatatom 47 198 0 0 0 0 - - - 0;
#X obj 46 505 spigot;
#X obj 71 351 spigot;
#X obj 184 216 spigot;
#X obj 139 268 ==;
#X obj 229 700 spigot;
#X obj 148 38 touchin;
#X obj 288 656 == 5;
#X msg 70 325 5;
#X msg 152 416 0;
#X obj 74 378 t f b;
#X obj 69 434 s \$0-type;
#X obj 152 439 s \$0-set-spigot;
#X obj 189 244 s \$0-v1;
#X obj 245 245 r \$0-v1-set;
#X obj 458 191 r \$0-set-spigot;
#X obj 287 620 r \$0-type;
#X obj 361 621 r \$0-type-set;
#X floatatom 424 591 0 0 0 0 - - - 0;
#X obj 491 615 ==;
#X obj 441 554 spigot;
#X obj 487 733 outlet;
#X obj 487 698 spigot;
#X obj 483 650 sel 1;
#X obj 98 113 t f b f;
#X obj 504 586 s \$0-v2;
#X obj 560 583 r \$0-v2-set;
#X connect 1 0 5 0;
#X connect 1 0 6 0;
#X connect 2 0 3 0;
#X connect 3 0 7 0;
#X connect 3 0 20 0;
#X connect 4 0 12 0;
#X connect 5 0 6 1;
#X connect 5 0 15 0;
#X connect 6 0 3 1;
#X connect 7 0 0 0;
#X connect 8 0 26 0;
#X connect 8 1 1 0;
#X connect 9 0 7 1;
#X connect 9 0 24 1;
#X connect 10 0 4 0;
#X connect 11 0 14 0;
#X connect 12 0 13 0;
#X connect 12 1 11 0;
#X connect 16 0 6 1;
#X connect 17 0 4 1;
#X connect 17 0 5 1;
#X connect 17 0 22 1;
#X connect 18 0 9 0;
#X connect 19 0 9 0;
#X connect 20 0 21 0;
#X connect 21 0 25 0;
#X connect 22 0 21 1;
#X connect 22 0 27 0;
#X connect 24 0 23 0;
#X connect 25 0 24 0;
#X connect 26 0 2 0;
#X connect 26 1 10 0;
#X connect 26 2 22 0;
#X connect 28 0 21 1;
#X restore 98 -49 pd touchin;
#N canvas 85 22 756 766 polytouchin 0;
#X obj 229 735 outlet;
#X floatatom 141 145 0 0 0 0 - - - 0;
#X floatatom 47 198 0 0 0 0 - - - 0;
#X floatatom 196 146 0 0 0 0 - - - 0;
#X obj 59 527 spigot;
#X obj 263 170 ==;
#X obj 229 661 spigot;
#X obj 213 109 spigot;
#X obj 71 351 spigot;
#X obj 184 216 spigot;
#X obj 139 268 ==;
#X obj 229 700 spigot;
#X msg 70 325 6;
#X obj 287 656 == 6;
#X obj 148 38 polytouchin;
#X msg 152 416 0;
#X obj 74 378 t f b;
#X obj 69 434 s \$0-type;
#X obj 152 439 s \$0-set-spigot;
#X obj 189 244 s \$0-v1;
#X obj 245 245 r \$0-v1-set;
#X obj 276 140 s \$0-v2;
#X obj 332 138 r \$0-v2-set;
#X obj 631 88 r \$0-set-spigot;
#X obj 287 620 r \$0-type;
#X obj 361 621 r \$0-type-set;
#X floatatom 424 591 0 0 0 0 - - - 0;
#X obj 491 615 ==;
#X obj 441 554 spigot;
#X obj 504 585 s \$0-v3;
#X obj 560 583 r \$0-v3-set;
#X obj 487 733 outlet;
#X obj 487 698 spigot;
#X obj 483 650 sel 1;
#X obj 98 113 t f b f;
#X connect 1 0 9 0;
#X connect 1 0 10 0;
#X connect 2 0 4 0;
#X connect 3 0 5 0;
#X connect 4 0 6 0;
#X connect 4 0 26 0;
#X connect 5 0 6 1;
#X connect 6 0 11 0;
#X connect 7 0 5 1;
#X connect 7 0 21 0;
#X connect 8 0 16 0;
#X connect 9 0 10 1;
#X connect 9 0 19 0;
#X connect 10 0 4 1;
#X connect 11 0 0 0;
#X connect 12 0 8 0;
#X connect 13 0 11 1;
#X connect 13 0 32 1;
#X connect 14 0 34 0;
#X connect 14 1 1 0;
#X connect 14 2 3 0;
#X connect 14 2 7 0;
#X connect 15 0 18 0;
#X connect 16 0 17 0;
#X connect 16 1 15 0;
#X connect 20 0 10 1;
#X connect 22 0 5 1;
#X connect 23 0 7 1;
#X connect 23 0 8 1;
#X connect 23 0 9 1;
#X connect 23 0 28 1;
#X connect 24 0 13 0;
#X connect 25 0 13 0;
#X connect 26 0 27 0;
#X connect 27 0 33 0;
#X connect 28 0 27 1;
#X connect 28 0 29 0;
#X connect 30 0 27 1;
#X connect 32 0 31 0;
#X connect 33 0 32 0;
#X connect 34 0 2 0;
#X connect 34 1 12 0;
#X connect 34 2 28 0;
#X restore 166 -49 pd polytouchin;
#N canvas 495 125 792 489 save-recall 0;
#X obj 310 148 r setting-recall;
#X obj 95 135 s setting-save;
#X obj 94 75 symbol \$1;
#X obj 101 39 t b f;
#X obj -35 18 r setting-refresh;
#X obj -37 43 t b;
#X text 83 353 make auto-create version of this sub-patch \, which can take argument list of all the different settings?;
#X obj 125 13 r \$0-type;
#X obj 185 12 r \$0-v1;
#X obj 234 13 r \$0-v2;
#X obj 148 36 r \$0-type-set;
#X obj 236 38 r \$0-v1-set;
#X obj 325 37 r \$0-v2-set;
#X obj 164 312 s \$0-type-set;
#X obj 257 312 s \$0-v1-set;
#X obj 333 313 s \$0-v2-set;
#X obj 492 80 r \$0-min;
#X obj 509 302 s setting-save;
#X obj 467 142 symbol \$1;
#X obj 94 108 pack s 0 0 0 0;
#X obj 409 37 r \$0-v3-set;
#X obj 410 311 s \$0-v3-set;
#X obj 252 276 unpack 0 0 0 0;
#X obj 309 177 route \$1 \$1-min \$1-max;
#X msg 473 173 symbol \$1-min;
#X obj 509 262 pack s 0;
#X obj 482 114 t b f;
#X obj 607 298 s setting-save;
#X obj 565 138 symbol \$1;
#X obj 580 110 t b f;
#X obj 590 76 r \$0-max;
#X msg 571 169 symbol \$1-max;
#X obj 297 240 s \$0-min-set;
#X obj 381 237 s \$0-max-set;
#X obj 607 258 pack s 127;
#X connect 0 0 23 0;
#X connect 2 0 19 0;
#X connect 3 0 2 0;
#X connect 3 1 19 1;
#X connect 4 0 5 0;
#X connect 5 0 2 0;
#X connect 5 0 18 0;
#X connect 5 0 28 0;
#X connect 7 0 3 0;
#X connect 8 0 19 2;
#X connect 9 0 19 3;
#X connect 10 0 19 1;
#X connect 11 0 19 2;
#X connect 12 0 19 3;
#X connect 16 0 26 0;
#X connect 18 0 24 0;
#X connect 19 0 1 0;
#X connect 20 0 19 4;
#X connect 22 0 13 0;
#X connect 22 1 14 0;
#X connect 22 2 15 0;
#X connect 22 3 21 0;
#X connect 23 0 22 0;
#X connect 23 1 32 0;
#X connect 23 1 25 1;
#X connect 23 2 33 0;
#X connect 23 2 34 1;
#X connect 24 0 25 0;
#X connect 25 0 17 0;
#X connect 26 0 18 0;
#X connect 26 1 25 1;
#X connect 28 0 31 0;
#X connect 29 0 28 0;
#X connect 29 1 34 1;
#X connect 30 0 29 0;
#X connect 31 0 34 0;
#X connect 34 0 27 0;
#X restore 311 55 pd save-recall;
#X msg 102 47 set \$1;
#X obj 100 193 s \$0-set-spigot;
#X obj 102 19 r \$0-set-spigot;
#X obj -11 52 outlet;
#N canvas 533 22 756 766 pgmin 0;
#X obj 229 735 outlet;
#X floatatom 141 145 0 0 0 0 - - - 0;
#X floatatom 33 159 0 0 0 0 - - - 0;
#X obj 64 624 spigot;
#X obj 71 351 spigot;
#X obj 184 216 spigot;
#X obj 146 262 ==;
#X obj 229 700 spigot;
#X obj 288 656 == 3;
#X obj 148 38 pgmin;
#X msg 70 325 3;
#X msg 152 416 0;
#X obj 74 378 t f b;
#X obj 69 434 s \$0-type;
#X obj 152 439 s \$0-set-spigot;
#X obj 453 152 r \$0-set-spigot;
#X obj 287 620 r \$0-type;
#X obj 361 621 r \$0-type-set;
#X obj 320 326 spigot;
#X obj 277 390 ==;
#X obj 407 700 spigot;
#X obj 407 736 outlet;
#X obj 187 246 s \$0-v1;
#X obj 245 245 r \$0-v1-set;
#X obj 321 357 s \$0-v2;
#X obj 378 356 r \$0-v2-set;
#X obj 307 448 sel 1;
#X obj 98 113 t f b f;
#X connect 1 0 5 0;
#X connect 1 0 6 0;
#X connect 2 0 19 0;
#X connect 2 0 3 0;
#X connect 3 0 7 0;
#X connect 4 0 12 0;
#X connect 5 0 6 1;
#X connect 5 0 22 0;
#X connect 6 0 3 1;
#X connect 7 0 0 0;
#X connect 8 0 7 1;
#X connect 8 0 20 1;
#X connect 9 0 27 0;
#X connect 9 1 1 0;
#X connect 10 0 4 0;
#X connect 11 0 14 0;
#X connect 12 0 13 0;
#X connect 12 1 11 0;
#X connect 15 0 4 1;
#X connect 15 0 5 1;
#X connect 15 0 18 1;
#X connect 16 0 8 0;
#X connect 17 0 8 0;
#X connect 18 0 19 1;
#X connect 18 0 24 0;
#X connect 19 0 26 0;
#X connect 20 0 21 0;
#X connect 23 0 6 1;
#X connect 25 0 19 1;
#X connect 26 0 20 0;
#X connect 27 0 2 0;
#X connect 27 1 10 0;
#X connect 27 2 18 0;
#X restore -20 -50 pd pgmin;
#X text -12 74 match;
#X obj -131 247 + 0;
#X obj -131 224 * 127;
#X obj 122 110 nbx 5 18 -1e+37 1e+37 0 0 empty empty MIN 12 -5 0 8 #fcfcfc #000000 #000000 0 256;
#X obj 170 110 nbx 5 18 -1e+37 1e+37 0 0 empty empty MAX 12 -5 0 8 #fcfcfc #000000 #000000 0 256;
#X obj -133 273 outlet;
#X obj 108 130 nbx 12 18 -1e+37 1e+37 0 0 empty empty MOST_RECENT_VALUE 5 25 0 8 #fcfcfc #000000 #000000 0 256;
#X msg 173 61 set \$1;
#X msg 226 62 set \$1;
#X obj -66 167 float 127;
#X obj -54 195 -;
#X text -136 290 scaled value;
#X obj -69 131 t b f f;
#X obj 312 171 s \$0-max;
#X obj 224 169 s \$0-min;
#X obj 151 40 r \$0-min-set;
#X obj 228 41 r \$0-max-set;
#X obj 282 -26 inlet;
#X obj 320 -26 inlet;
#X obj 357 -25 inlet;
#X obj -138 52 / 127;
#X connect 0 0 10 0;
#X connect 3 0 34 0;
#X connect 3 1 12 0;
#X connect 4 0 34 0;
#X connect 4 1 12 0;
#X connect 5 0 34 0;
#X connect 5 1 12 0;
#X connect 6 0 34 0;
#X connect 6 1 12 0;
#X connect 7 0 34 0;
#X connect 7 1 12 0;
#X connect 9 0 0 0;
#X connect 11 0 9 0;
#X connect 13 0 34 0;
#X connect 13 1 12 0;
#X connect 15 0 20 0;
#X connect 16 0 15 0;
#X connect 17 0 26 0;
#X connect 17 0 28 0;
#X connect 18 0 23 0;
#X connect 18 0 27 0;
#X connect 20 0 19 0;
#X connect 21 0 17 0;
#X connect 22 0 18 0;
#X connect 23 0 24 0;
#X connect 24 0 16 1;
#X connect 26 0 23 0;
#X connect 26 1 24 1;
#X connect 26 2 15 1;
#X connect 29 0 21 0;
#X connect 29 0 26 0;
#X connect 30 0 22 0;
#X connect 30 0 23 0;
#X connect 31 0 34 0;
#X connect 32 0 17 0;
#X connect 33 0 18 0;
#X connect 34 0 16 0;
#X coords 0 -1 1 1 117 60 2 100 100;
