#N canvas 264 88 694 617 10;
#X obj -333 -263 openpanel;
#X obj -138 -274 inlet;
#X text -343 -296 get UI to choose+load file;
#X text -132 -292 get a message to choose+load file (absolute path)
;
#X obj -264 162 outlet;
#X obj -333 -234 symbol;
#X msg 47 -22 0 \, 0 0;
#X msg 46 -44 set 0 \, addcomma \, add2 \$1 \, add2 \$1;
#X obj 103 168 hsl 150 15 0 0 0 0 empty empty set_position_in_sample
-2 -8 0 10 -262144 -1 -1 0 1;
#X msg 105 24 range 0 \$1;
#X obj 100 129 bng 25 250 50 0 empty empty play_entire_sample 27 7
0 10 -262144 -1 -1;
#X obj -68 -131 t f b;
#X obj -36 -112 samplerate~;
#X obj -35 -89 / 1000;
#X obj -67 -66 /;
#X obj -14 226 line 0 1;
#X text -213 164 sample duration (ms);
#X obj -14 247 outlet;
#X text 40 249 play position;
#X obj 100 100 bng 25 250 50 0 empty empty load_new_sample 27 7 0 10
-262144 -1 -1;
#X obj -331 -213 t s b;
#X obj -235 -190 symbol \$1;
#X obj -333 -181 pack s s;
#X obj -330 -124 soundfiler;
#X msg -332 -152 read -resize -maxsize 1.728e+009 \$1 \$2;
#X obj -139 -248 route bang;
#X obj 87 -166 array define \$1;
#X connect 0 0 5 0;
#X connect 1 0 25 0;
#X connect 5 0 20 0;
#X connect 6 0 15 0;
#X connect 7 0 6 0;
#X connect 8 0 15 0;
#X connect 9 0 8 0;
#X connect 10 0 6 0;
#X connect 11 0 14 0;
#X connect 11 1 12 0;
#X connect 12 0 13 0;
#X connect 13 0 14 1;
#X connect 14 0 7 0;
#X connect 14 0 9 0;
#X connect 14 0 4 0;
#X connect 15 0 17 0;
#X connect 19 0 0 0;
#X connect 20 0 22 0;
#X connect 20 1 21 0;
#X connect 21 0 22 1;
#X connect 22 0 24 0;
#X connect 23 0 11 0;
#X connect 24 0 23 0;
#X connect 25 0 0 0;
#X connect 25 1 5 0;
#X coords 0 -1 1 1 155 83 2 100 100;
