#N canvas 154 144 528 436 10;
#X floatatom 101 244 16 0 0 0 - - -;
#X obj 37 44 r generate-data;
#X msg -73 198 set \$1;
#X obj 100 112 midi_learn \$1;
#X obj 100 184 midi_learn \$1-skew;
#X obj 101 101 cnv 10 100 10 empty empty \$1 20 5 0 10 -233017 -66577
0;
#X obj 100 173 cnv 10 100 10 empty empty \$1-skew 20 5 0 10 -233017
-66577 0;
#X obj -70 222 r test-array-grain-\$1-set;
#X floatatom 101 268 19 0 0 0 - - -;
#X msg -68 244 set \$1;
#X obj 40 69 bng 15 250 50 0 empty empty empty 17 7 0 10 -262144 -1
-1;
#X obj 220 42 r test-array-grain-\$1-max;
#X obj -73 176 r test-array-grain-\$1;
#X obj 102 328 s test-array-grain-\$1;
#X obj 102 307 gaussian 0 0 3;
#X connect 0 0 8 0;
#X connect 1 0 10 0;
#X connect 2 0 0 0;
#X connect 3 0 0 0;
#X connect 4 0 14 1;
#X connect 7 0 9 0;
#X connect 8 0 14 0;
#X connect 9 0 8 0;
#X connect 10 0 8 0;
#X connect 11 0 3 2;
#X connect 11 0 4 2;
#X connect 12 0 2 0;
#X connect 14 0 13 0;
#X coords 0 -1 1 1 117 163 2 100 100;
