#N canvas 155 68 726 516 10;
#X obj 205 62 inlet;
#X obj 118 61 inlet~;
#X obj 205 172 expr sin (($f1 + 100) / 400 * 3.141592654);
#X obj 124 219 expr cos (($f1 + 100) / 400 * 3.141592654);
#X obj 220 329 *~ 0.707107;
#X obj 93 326 *~ 0.707107;
#X text 230 43 -100 = left \, 100 = right \, 0 = center;
#X text 129 28 inlets: signal pan-position;
#X obj 438 62 loadbang;
#X obj 439 96 float \$2;
#X text 336 333 arguments: throw-symbol default-value;
#X obj 211 130 clip -100 100;
#X obj 10 426 throw~ \$1-left~;
#X obj 186 425 throw~ \$1-right~;
#X obj 126 424 outlet~;
#X obj 316 426 outlet~;
#X connect 0 0 11 0;
#X connect 1 0 4 0;
#X connect 1 0 5 0;
#X connect 2 0 4 1;
#X connect 3 0 5 1;
#X connect 4 0 13 0;
#X connect 4 0 15 0;
#X connect 5 0 12 0;
#X connect 5 0 14 0;
#X connect 8 0 9 0;
#X connect 9 0 11 0;
#X connect 11 0 2 0;
#X connect 11 0 3 0;
