#N canvas 292 38 1436 845 10;
#X declare -path . -path .. -path ../main-lib;
#X obj 155 572 s grains-off;
#X obj 155 521 bng 45 250 50 0 empty empty empty 17 7 0 10 #fcfcfc #000000 #000000;
#X obj 846 568 declare -path . -path .. -path ../main-lib;
#X obj 1251 255 setting_save my-gran-play;
#N canvas 256 101 929 713 guts 0;
#X obj 123 410 dac~;
#X obj 100 100 on-off-vol-2ch;
#X obj 101 383 audio_safety~;
#X obj 200 382 audio_safety~;
#X obj 67 -52 bng 15 250 50 0 empty empty empty 17 7 0 10 #fcfcfc #000000 #000000;
#X obj 235 37 rev2~ 100 90 3000 50;
#X obj 53 -79 r trigger-grain;
#X obj 273 433 send~ out1;
#X obj 343 434 send~ out2;
#X obj 156 100 scope~;
#X obj 67 -30 aux-poly-voices aux-array-grain-poly 64 test-array-grain 100 0 0 200 0 100 100 1-grain;
#X connect 1 0 2 0;
#X connect 1 0 9 0;
#X connect 1 1 3 0;
#X connect 1 1 9 0;
#X connect 2 0 0 0;
#X connect 2 0 7 0;
#X connect 3 0 0 1;
#X connect 3 0 8 0;
#X connect 4 0 10 0;
#X connect 5 0 1 0;
#X connect 5 1 1 1;
#X connect 6 0 4 0;
#X connect 10 0 1 0;
#X connect 10 1 1 1;
#X connect 10 2 5 0;
#X connect 10 3 5 0;
#X coords 0 -1 1 1 260 180 2 100 100;
#X restore 811 294 pd guts;
#X text 812 437 volume;
#X text 812 426 master;
#X text 1249 320 settings memory;
#X text 152 506 SILENCE;
#X obj 246 521 bng 45 250 50 0 empty empty empty 17 7 0 10 #fcfcfc #000000 #000000;
#X obj 246 572 s grains-on;
#X text 243 506 AUTO-SCHEDULE GRAINS;
#X obj 578 522 bng 45 250 50 0 empty empty empty 17 7 0 10 #fcfcfc #000000 #000000;
#X text 575 507 TRIGGER ONE GRAIN;
#X obj 578 573 s trigger-grain;
#X obj 411 521 bng 45 250 50 0 empty empty empty 17 7 0 10 #fcfcfc #000000 #000000;
#X obj 411 572 s generate-data;
#X text 408 506 GENERATE CONTROL DATA;
#N canvas 622 285 788 593 position 0;
#X obj 310 317 +;
#X obj 381 297 *;
#X obj 384 270 float;
#X obj 369 184 t f b;
#X msg 276 111 set \$1;
#X text 321 71 starting file position;
#X obj 333 113 clip 0 0;
#X obj 427 272 r pb-speed;
#X obj 332 429 +;
#X obj 332 461 clip 0 0;
#X obj 138 513 s test-array-grain-onset;
#X obj 425 514 outlet;
#X obj 385 367 r test-array-grain-file-pos-adjust;
#X floatatom 334 88 15 0 0 0 - - - 0;
#X floatatom 385 392 15 0 0 0 - - - 0;
#X obj 334 47 r test-array-grain-file-position;
#X obj 595 83 r test-array-grain-file-position-max;
#X floatatom 334 88 15 0 0 0 - - - 0;
#X floatatom 334 88 15 0 0 0 - - - 0;
#X obj 427 187 r test-array-grain-rate;
#X obj 10 349 s test-array-grain-file-position-set;
#X connect 0 0 8 0;
#X connect 0 0 20 0;
#X connect 1 0 0 1;
#X connect 2 0 1 0;
#X connect 3 0 0 0;
#X connect 3 1 2 0;
#X connect 4 0 13 0;
#X connect 6 0 3 0;
#X connect 7 0 1 1;
#X connect 8 0 9 0;
#X connect 9 0 10 0;
#X connect 9 0 11 0;
#X connect 12 0 14 0;
#X connect 13 0 6 0;
#X connect 14 0 8 1;
#X connect 15 0 13 0;
#X connect 16 0 6 2;
#X connect 16 0 9 2;
#X connect 19 0 2 1;
#X restore 422 289 pd position;
#N canvas 0 22 838 508 auto 0;
#X obj 271 144 tgl 15 0 empty empty empty 17 7 0 10 #fcfcfc #000000 #000000 0 1;
#X obj 274 313 t b b;
#X obj 292 281 metro 20;
#X floatatom 298 205 5 0 0 0 - - - 0;
#X obj 296 174 gaussian 50 0 3 1;
#X obj 277 348 s trigger-grain;
#X obj 195 77 r grains-off;
#X msg 215 114 0;
#X obj 287 77 r grains-on;
#X msg 249 115 1;
#X obj 397 348 s generate-data;
#X obj 336 126 r test-array-grain-rate-skew;
#X obj 332 104 r test-array-grain-rate;
#X obj 366 275 s test-array-grain-deltime;
#X connect 0 0 2 0;
#X connect 1 0 5 0;
#X connect 1 1 10 0;
#X connect 2 0 1 0;
#X connect 3 0 2 1;
#X connect 3 0 13 0;
#X connect 4 0 3 0;
#X connect 6 0 7 0;
#X connect 7 0 0 0;
#X connect 8 0 9 0;
#X connect 9 0 0 0;
#X connect 11 0 4 1;
#X connect 12 0 4 0;
#X restore 1108 567 pd auto;
#N canvas 164 56 596 336 grain-tab 0;
#X symbolatom 292 150 10 0 0 0 - - - 0;
#X obj 292 172 s test-array-grain-tablename;
#X floatatom 100 189 15 0 0 0 - - - 0;
#X obj 100 100 load-file 1-grain;
#X obj 292 99 loadbang;
#X msg 292 125 symbol 1-grain;
#X obj 100 210 s test-array-grain-file-position-max;
#X obj 369 209 s test-array-grain-file-position;
#X connect 0 0 1 0;
#X connect 2 0 6 0;
#X connect 3 0 2 0;
#X connect 3 1 7 0;
#X connect 4 0 5 0;
#X connect 5 0 0 0;
#X coords 0 -1 1 1 155 83 2 100 100;
#X restore 154 280 pd grain-tab;
#X obj 423 268 s pb-speed;
#X obj 424 183 midi_learn speed;
#X obj 272 15 midi-gauss-control file-position;
#X obj 422 312 nbx 12 28 -1e+37 1e+37 0 0 empty empty empty 0 -12 0 24 #fcfcfc #000000 #000000 0 256;
#X text 437 341 current read position;
#X text 141 173 semitones;
#X text 14 173 100 = unity gain;
#X text 426 247 rate of movement through file;
#X text 1290 182 reverb: 100 = full;
#X text 897 182 envelope characteristics;
#X text 1142 183 center = 0 \, -100 to 100;
#X text 732 179 grain duration ms;
#X text 572 178 time between grains ms;
#X obj 736 17 midi-gauss-control dur;
#X obj 8 13 midi-gauss-control level;
#X obj 423 15 midi-gauss-control file-pos-adjust;
#X obj 126 13 midi-gauss-control transp;
#X obj 591 16 midi-gauss-control rate;
#X obj 1145 18 midi-gauss-control pan;
#X obj 1291 21 midi-gauss-control aux;
#X obj 880 20 midi-gauss-control rise;
#X obj 1000 21 midi-gauss-control fall;
#N canvas 0 22 464 611 recording 0;
#X msg 67 269 start;
#X msg 140 295 stop;
#X obj 100 115 bng 30 250 50 0 empty empty open_recording_file 0 -9 0 10 #fc0400 #000000 #000000;
#X obj 292 234 list trim;
#X obj 292 263 list prepend open;
#X obj 319 197 savepanel;
#X obj 290 291 list trim;
#X obj 100 170 tgl 30 0 empty empty start/stop_recording 0 -9 0 10 #fcc4c4 #000000 #000000 0 1;
#X obj 98 234 sel 1 0;
#X msg 361 146 set 0;
#X obj 312 117 t b b;
#X obj 169 451 receive~ out1;
#X obj 266 452 receive~ out2;
#X obj 81 534 writesf~ 2;
#X connect 0 0 13 0;
#X connect 1 0 13 0;
#X connect 2 0 10 0;
#X connect 3 0 4 0;
#X connect 4 0 6 0;
#X connect 5 0 3 0;
#X connect 6 0 13 0;
#X connect 7 0 8 0;
#X connect 8 0 0 0;
#X connect 8 1 1 0;
#X connect 9 0 7 0;
#X connect 10 0 5 0;
#X connect 10 1 9 0;
#X connect 11 0 13 0;
#X connect 12 0 13 1;
#X coords 0 -1 1 1 155 100 2 100 100;
#X restore 154 383 pd recording;
#X connect 1 0 0 0;
#X connect 9 0 10 0;
#X connect 12 0 14 0;
#X connect 15 0 16 0;
#X connect 18 0 24 0;
#X connect 22 0 21 0;
