#N canvas 75 22 1344 820 10;
#X obj 364 734 *~;
#X obj 665 231 inlet;
#X obj 566 163 inlet;
#X obj 384 95 inlet;
#X obj 226 295 float 0;
#X text 281 667 generate envelope;
#X obj 217 562 vline~;
#X obj 268 350 +;
#X msg 217 536 \$1 \, \$2 \$3;
#X obj 367 161 expr pow (2 \, $f1 / 12);
#X text 374 115 transposition (semitones);
#X text 283 196 start point milliseconds;
#X text 577 185 grain duration milliseconds;
#X obj 157 559 inlet;
#X obj 227 321 t f f;
#X obj 203 607 dbtorms;
#X obj 619 349 inlet;
#X text 711 361 pan -100 to 100;
#X obj 770 278 inlet;
#X obj 933 361 inlet;
#X obj 240 72 r grains-off;
#X msg 197 666 \$3 \$1 \$2 \$4;
#X obj 196 646 pack 0 0 0 1;
#X obj 108 692 sin-env;
#X msg 262 697 10;
#X obj 233 108 t b b;
#X obj 129 180 del 10;
#X msg 146 150 stop;
#X obj 300 300 expr 1 - $f1;
#X obj 217 512 pack 0 0 20;
#X text 928 344 feedback;
#X floatatom 271 487 5 0 0 0 - - -;
#X floatatom 217 487 5 0 0 0 - - -;
#X floatatom 318 488 5 0 0 0 - - -;
#X obj 272 375 t f f;
#X obj 277 433 -;
#X obj 217 461 +;
#X obj 286 177 inlet;
#N canvas 453 72 843 508 envelope-limiter 0;
#X obj 180 216 t b f;
#X obj 133 167 t f f f;
#X text 243 372 limit down time to (grain size - up time);
#X obj 162 293 -;
#X obj 162 320 t b f;
#X obj 146 403 -;
#X text 247 405 calculate delay time for down (grain size - down time)
;
#X obj 162 374 clip 10 10;
#X obj 181 194 - 10;
#X text 258 264 limit up time: 10 to (grain size - 10);
#X obj 131 78 inlet;
#X obj 239 74 inlet;
#X text 121 53 bang-it-out;
#X text 235 54 grain-dur (requested);
#X obj 416 78 inlet;
#X text 412 58 rise-time (requested);
#X obj 585 76 inlet;
#X text 581 56 fall-time (requested);
#X obj 145 433 outlet;
#X obj 303 439 outlet;
#X obj 224 435 outlet;
#X text 299 464 rise;
#X text 224 461 fall;
#X text 144 458 sustain;
#X obj 179 264 clip 10 10;
#X obj 181 241 float;
#X obj 163 346 float;
#X obj 133 119 float;
#X connect 0 0 25 0;
#X connect 0 1 24 2;
#X connect 1 0 5 0;
#X connect 1 1 3 0;
#X connect 1 2 8 0;
#X connect 3 0 4 0;
#X connect 4 0 26 0;
#X connect 4 1 7 2;
#X connect 5 0 18 0;
#X connect 7 0 5 1;
#X connect 7 0 20 0;
#X connect 8 0 0 0;
#X connect 10 0 27 0;
#X connect 11 0 27 1;
#X connect 14 0 25 1;
#X connect 16 0 26 1;
#X connect 24 0 3 1;
#X connect 24 0 19 0;
#X connect 25 0 24 0;
#X connect 26 0 7 0;
#X connect 27 0 1 0;
#X restore 551 552 pd envelope-limiter;
#X text 709 231 envelope rise time;
#X text 814 278 envelope fall time;
#X text 341 395 keep end-point of delay line within bounds \; reset
start point if necessary to maintain dur;
#X text 159 585 level;
#X obj 411 780 +~;
#X obj 271 404 clip 0 \$5;
#X obj 453 821 throw~ \$4-feedback~;
#X obj 360 712 vd~ \$4;
#X obj 295 272 float 1;
#X obj 193 -34 t b f;
#X obj 254 -94 route bang;
#X floatatom 549 617 5 0 0 0 - - -;
#X floatatom 589 617 5 0 0 0 - - -;
#X floatatom 630 615 5 0 0 0 - - -;
#X obj 453 797 *~ \$13;
#X obj 300 320 *;
#X obj -10 -109 poly-voice-alloc \$2 \$3;
#X obj 138 18 t b b b;
#X obj 710 385 settingizer \$1-pan \$10 -100 100 getval-\$0;
#X obj 205 582 settingizer \$1-level \$6 1 127 getval-\$0;
#X obj 257 43 s getval-\$0;
#X obj 245 213 settingizer \$1-onset \$7 0 \$5 getval-\$0;
#X obj 367 132 settingizer \$1-transp \$8 -3.40282e+38 3.40282e+38
getval-\$0;
#X obj 568 205 settingizer \$1-dur \$9 20 3.40282e+38 getval-\$0;
#X obj 665 256 settingizer \$1-rise \$11 10 3.40282e+38 getval-\$0
;
#X obj 771 301 settingizer \$1-fall \$12 10 3.40282e+38 getval-\$0
;
#X obj 910 410 settingizer \$1-fb \$13 0 0.999 getval-\$0;
#X obj 833 493 float;
#X obj 886 493 float;
#X text 933 35 arguments \; 1 receive-name-stem \; 2 poly-voice-stem-symbol
\; 3 voice-number \; 4 delay-line-name \; 5 delay-line-duration \;
6 level \; 7 onset \; 8 transp \; 9 dur \; 10 pan \; 11 rise \; 12
fall \; 13 fb \; 14 aux;
#X obj 990 440 inlet;
#X text 999 461 aux;
#X obj 970 537 float;
#X obj 132 206 t b b b b b b;
#X text 329 -72 level onset transp dur pan rise fall fb aux;
#X obj 328 -52 unpack 0 0 0 0 0 0 0 0 0;
#X obj 987 485 settingizer \$1-aux \$14 1 127 getval-\$0;
#X obj 364 755 aux_pan \$2 \$10 \$14;
#X connect 0 0 76 0;
#X connect 1 0 63 0;
#X connect 2 0 62 0;
#X connect 3 0 61 0;
#X connect 4 0 14 0;
#X connect 6 0 46 0;
#X connect 7 0 34 0;
#X connect 8 0 6 0;
#X connect 9 0 47 1;
#X connect 13 0 58 0;
#X connect 14 0 36 0;
#X connect 14 1 7 0;
#X connect 15 0 22 3;
#X connect 16 0 57 0;
#X connect 18 0 64 0;
#X connect 19 0 65 0;
#X connect 20 0 25 0;
#X connect 21 0 23 0;
#X connect 22 0 21 0;
#X connect 23 0 0 1;
#X connect 23 1 55 1;
#X connect 24 0 23 2;
#X connect 25 0 27 0;
#X connect 25 1 24 0;
#X connect 26 0 72 0;
#X connect 27 0 26 0;
#X connect 28 0 54 0;
#X connect 29 0 8 0;
#X connect 31 0 29 1;
#X connect 32 0 29 0;
#X connect 33 0 29 2;
#X connect 34 0 44 0;
#X connect 34 1 35 1;
#X connect 35 0 36 1;
#X connect 36 0 32 0;
#X connect 37 0 60 0;
#X connect 38 0 22 0;
#X connect 38 0 50 0;
#X connect 38 1 22 1;
#X connect 38 1 51 0;
#X connect 38 2 22 2;
#X connect 38 2 52 0;
#X connect 43 0 53 0;
#X connect 44 0 35 0;
#X connect 44 0 31 0;
#X connect 46 0 0 0;
#X connect 47 0 28 0;
#X connect 48 0 56 0;
#X connect 48 1 58 0;
#X connect 49 0 56 0;
#X connect 49 1 74 0;
#X connect 53 0 45 0;
#X connect 54 0 7 1;
#X connect 55 0 49 0;
#X connect 56 0 26 0;
#X connect 56 1 25 0;
#X connect 56 2 59 0;
#X connect 57 0 66 1;
#X connect 58 0 15 0;
#X connect 60 0 4 1;
#X connect 61 0 9 0;
#X connect 62 0 38 1;
#X connect 62 0 33 0;
#X connect 62 0 54 1;
#X connect 63 0 38 2;
#X connect 64 0 38 3;
#X connect 65 0 67 1;
#X connect 66 0 76 1;
#X connect 67 0 53 1;
#X connect 69 0 75 0;
#X connect 71 0 76 2;
#X connect 72 0 4 0;
#X connect 72 1 38 0;
#X connect 72 2 47 0;
#X connect 72 3 66 0;
#X connect 72 4 67 0;
#X connect 72 5 71 0;
#X connect 74 0 48 0;
#X connect 74 0 56 0;
#X connect 74 1 60 0;
#X connect 74 2 61 0;
#X connect 74 3 62 0;
#X connect 74 4 57 0;
#X connect 74 5 63 0;
#X connect 74 6 64 0;
#X connect 74 7 65 0;
#X connect 74 8 75 0;
#X connect 75 0 71 1;
#X connect 76 0 43 0;
#X connect 76 1 43 1;
