#N canvas 20 77 1352 557 10;
#X obj 272 266 expr int ($f1 + 0.5);
#X obj 274 346 + 1;
#X obj 275 291 t f f;
#X obj 279 385 pack;
#X obj 241 101 bng 15 250 50 0 empty empty empty 17 7 0 10 -262144
-1 -1;
#X obj 242 -30 tgl 15 0 empty empty empty 17 7 0 10 -262144 -1 -1 0
1;
#X floatatom 415 163 5 0 0 0 - - -;
#N canvas 238 22 976 792 gaussian 0;
#X obj 264 572 / \$3;
#X floatatom 157 665 0 0 0 0 - - -;
#X obj 160 642 + 0;
#X obj 190 235 t f f;
#X obj 191 259 * 2;
#X floatatom 345 430 0 0 0 0 - - -;
#X obj 56 21 inlet;
#X obj 270 66 inlet;
#X obj 385 254 inlet;
#X obj 156 699 outlet;
#X obj 226 349 until;
#X obj 384 507 float;
#X obj 350 543 +;
#X obj 222 537 float;
#X obj 346 469 t f b;
#X msg 434 337 0;
#X text 55 3 bang/float: trigger \, or set central value and trigger
;
#X text 264 46 range +/-;
#X text 385 236 narrowness of window;
#X text 211 700 semi-random value;
#X obj 190 287 t b b f b;
#X obj 345 504 - 0;
#X floatatom 295 650 25 0 0 0 - - -;
#X msg 121 72 0;
#X obj 627 27 loadbang;
#X msg 636 129 1;
#X obj 562 157 spigot;
#X msg 606 129 0;
#X obj 191 215 * 1;
#X obj 168 111 t f b f;
#X obj 563 178 expr 0.01 * abs ($f1);
#X floatatom 562 210 5 0 0 0 - - -;
#X obj 628 78 sel 0;
#X obj 172 73 float 50;
#X obj 216 320 float 3;
#X obj 622 54 float;
#X obj 212 159 float 50;
#X obj 689 29 inlet;
#X text 535 467 inlet 1: bang or central value \; inlet 2: range +/-
\; inlet 3: narrowness of window \; inlet 4: percentage toggle - non-zero
makes range value percent of central value;
#N canvas 689 232 450 300 float_random 0;
#X obj 162 154 expr int ($f1 + 0.5);
#X obj 97 277 random;
#X obj 162 207 + 1;
#X obj 95 64 inlet;
#X obj 162 65 inlet;
#X obj 99 386 outlet;
#X obj 162 109 * 10000;
#X obj 114 334 / 10000;
#X connect 0 0 2 0;
#X connect 1 0 7 0;
#X connect 2 0 1 1;
#X connect 3 0 1 0;
#X connect 4 0 6 0;
#X connect 6 0 0 0;
#X connect 7 0 5 0;
#X restore 227 375 pd float_random;
#X connect 0 0 22 0;
#X connect 0 0 2 1;
#X connect 1 0 9 0;
#X connect 2 0 1 0;
#X connect 3 0 4 0;
#X connect 3 1 21 1;
#X connect 4 0 20 0;
#X connect 5 0 14 0;
#X connect 6 0 33 0;
#X connect 7 0 36 1;
#X connect 8 0 0 1;
#X connect 8 0 34 1;
#X connect 10 0 39 0;
#X connect 11 0 12 1;
#X connect 12 0 11 1;
#X connect 12 0 13 1;
#X connect 13 0 0 0;
#X connect 14 0 21 0;
#X connect 14 1 11 0;
#X connect 15 0 11 1;
#X connect 20 0 13 0;
#X connect 20 1 34 0;
#X connect 20 2 39 1;
#X connect 20 3 15 0;
#X connect 21 0 12 0;
#X connect 23 0 29 0;
#X connect 24 0 35 0;
#X connect 25 0 26 1;
#X connect 26 0 30 0;
#X connect 27 0 26 1;
#X connect 28 0 3 0;
#X connect 29 0 2 0;
#X connect 29 1 36 0;
#X connect 29 2 26 0;
#X connect 30 0 28 1;
#X connect 30 0 31 0;
#X connect 32 0 27 0;
#X connect 32 1 25 0;
#X connect 33 0 29 0;
#X connect 34 0 10 0;
#X connect 35 0 32 0;
#X connect 36 0 28 0;
#X connect 37 0 35 0;
#X connect 39 0 5 0;
#X restore 272 232 pd gaussian;
#X obj 275 319 tabread gauss-display;
#X obj 281 409 tabwrite gauss-display;
#X msg 491 58 \; gauss-display const 0;
#X text 417 180 centricity (number of "rolls of the dice");
#N canvas 0 22 450 278 (subpatch) 0;
#X array gauss-display 1000 float 0;
#X coords 0 1000 1000 0 500 300 1 0 0;
#X restore 793 67 graph;
#X obj 387 52 loadbang;
#X msg 387 77 500;
#X msg 415 77 1;
#X floatatom 321 165 5 0 0 0 - - -;
#X floatatom 242 165 5 0 0 0 - - -;
#X obj 243 124 t b b;
#X text 318 182 range +/-;
#X text 254 181 center;
#X text 488 -8 a simple visual demonstration of the central limit theorem
;
#X text 490 92 clear display;
#X text 262 -31 generate data;
#X floatatom 284 10 5 0 0 0 - - -;
#X text 288 25 time between data (ms);
#X obj 243 68 metro 1;
#X connect 0 0 2 0;
#X connect 1 0 3 0;
#X connect 2 0 8 0;
#X connect 2 1 3 1;
#X connect 3 0 9 0;
#X connect 4 0 18 0;
#X connect 5 0 26 0;
#X connect 6 0 7 2;
#X connect 7 0 0 0;
#X connect 8 0 1 0;
#X connect 13 0 14 0;
#X connect 13 0 15 0;
#X connect 14 0 16 0;
#X connect 14 0 17 0;
#X connect 15 0 6 0;
#X connect 16 0 7 1;
#X connect 17 0 7 0;
#X connect 18 0 17 0;
#X connect 18 1 16 0;
#X connect 24 0 26 1;
#X connect 26 0 4 0;
