#N canvas 108 70 1060 678 24;
#X floatatom 0 135 5 0 127 0 - - -;
#X obj 0 2 vsl 15 128 0 127 0 0 empty empty empty 0 -9 0 10 -262144
-1 -1 12700 1;
#X obj 92 453 *~;
#X obj 300 334 line~;
#X obj 44 5 vu 15 120 empty empty -1 -8 0 10 -66577 -1 1 0;
#X obj 91 524 - 100;
#X obj 122 34 inlet~;
#X obj 262 536 outlet~;
#X obj 300 301 pack 0 40;
#X msg 259 104 set \$1;
#X obj 470 173 clip 0 127;
#X obj 555 -45 inlet;
#X text 371 536 scaled output;
#X text 124 0 signal to be scaled;
#X text 636 -44 set level externally;
#X obj 471 258 dbtopow;
#X obj 90 489 env~ 2048 128;
#X connect 0 0 9 0;
#X connect 0 0 10 0;
#X connect 1 0 0 0;
#X connect 2 0 7 0;
#X connect 2 0 16 0;
#X connect 3 0 2 1;
#X connect 5 0 4 0;
#X connect 6 0 2 0;
#X connect 8 0 3 0;
#X connect 9 0 1 0;
#X connect 10 0 15 0;
#X connect 11 0 1 0;
#X connect 15 0 8 0;
#X connect 16 0 5 0;
#X coords -1 -1 1 1 94 160 2 0 0;
