#N canvas 723 38 679 470 10;
#X obj 25 220 hsl 128 15 0 127 0 0 empty empty empty -2 -8 0 10 -262144
-1 -1 0 1;
#X obj 81 270 bng 15 250 50 0 empty empty empty 17 7 0 10 -262144 -1
-1;
#X obj 18 266 nbx 5 14 -1e+37 1e+37 0 0 empty empty empty 0 -8 0 10
-262144 -1 -1 0 256;
#X obj 209 229 bng 15 250 50 0 empty empty empty 17 7 0 10 -262144
-1 -1;
#X obj 132 138 midi_learn this-control;
#X floatatom 200 92 5 0 0 0 - - -;
#X floatatom 286 93 5 0 0 0 - - -;
#X text 65 284 value;
#X text 183 245 match learned value;
#X obj 105 384 hsl 128 15 0 127 0 0 empty empty empty -2 -8 0 10 -262144
-1 -1 1100 1;
#X obj 161 434 bng 15 250 50 0 empty empty empty 17 7 0 10 -262144
-1 -1;
#X obj 98 430 nbx 5 14 -1e+37 1e+37 0 0 empty empty empty 0 -8 0 10
-262144 -1 -1 11 256;
#X obj 289 393 bng 15 250 50 0 empty empty empty 17 7 0 10 -262144
-1 -1;
#X text 145 448 value;
#X text 263 409 match learned value;
#X floatatom 139 90 5 0 0 0 - - -;
#X text 133 71 raw 0-127;
#X text 204 73 scaled min;
#X text 280 73 scaled max;
#X floatatom 235 309 5 0 0 0 - - -;
#X floatatom 321 310 5 0 0 0 - - -;
#X floatatom 174 307 5 0 0 0 - - -;
#X text 168 288 raw 0-127;
#X text 239 290 scaled min;
#X text 315 290 scaled max;
#X text 288 143 midi_learn;
#X text 489 137 setting_save;
#X obj 489 164 setting_save settings-file;
#X obj 440 53 r setting-recall;
#X obj 439 82 print;
#X obj 174 345 midi_learn_small that-control;
#X text 213 343 midi_learn_small - the same \, but GUI is just the
"MIDI learn armed" toggle;
#X connect 0 0 1 0;
#X connect 4 0 0 0;
#X connect 4 0 2 0;
#X connect 4 1 3 0;
#X connect 5 0 4 1;
#X connect 6 0 4 2;
#X connect 9 0 10 0;
#X connect 15 0 4 0;
#X connect 19 0 30 1;
#X connect 20 0 30 2;
#X connect 21 0 30 0;
#X connect 28 0 29 0;
#X connect 30 0 9 0;
#X connect 30 0 11 0;
#X connect 30 1 12 0;
