#N canvas 94 26 528 436 10;
#X floatatom 101 244 16 0 0 0 - - -;
#X obj 37 44 r generate-data;
#X msg -73 198 set \$1;
#X obj 100 112 midi_learn \$1;
#X obj 100 184 midi_learn \$1-skew;
#X obj 101 101 cnv 10 100 10 empty empty \$1 20 5 0 10 -233017 -66577
0;
#X obj 100 173 cnv 10 100 10 empty empty \$1-skew 20 5 0 10 -233017
-66577 0;
#X floatatom 101 268 19 0 0 0 - - -;
#X msg -68 244 set \$1;
#X obj 40 69 bng 15 250 50 0 empty empty empty 17 7 0 10 -262144 -1
-1;
#X obj 102 307 gaussian 0 0 3;
#X obj 102 358 s test-live-grain-\$1;
#X obj 247 42 r test-live-grain-\$1-max;
#X obj -73 176 r test-live-grain-\$1;
#X obj -70 222 r test-live-grain-\$1-set;
#X obj 102 333 +;
#X obj 259 268 r test-live-grain-\$1-ext;
#X connect 0 0 7 0;
#X connect 1 0 9 0;
#X connect 2 0 0 0;
#X connect 3 0 0 0;
#X connect 4 0 10 1;
#X connect 7 0 10 0;
#X connect 8 0 7 0;
#X connect 9 0 7 0;
#X connect 10 0 15 0;
#X connect 12 0 3 2;
#X connect 12 0 4 2;
#X connect 13 0 2 0;
#X connect 14 0 8 0;
#X connect 15 0 11 0;
#X connect 16 0 15 1;
#X coords 0 -1 1 1 117 163 2 100 100;
