#N canvas 245 84 942 619 10;
#X obj 155 257 list split 2;
#X obj 155 285 unpack;
#X obj 287 404 outlet;
#X obj 124 352 float;
#X msg 124 403 \$1 0;
#X obj 16 276 inlet;
#X obj 17 303 t b;
#X text 18 259 voice finished;
#X obj -103 249 inlet~;
#X text -104 232 control signal - voice finished?;
#X obj 287 375 list;
#X obj 193 313 == 0;
#X text 159 61 use in voice abstraction for poly_voice shell \; arguments
(renumbering arguments from parent patch) \; 1 = \$2 (local control
stem symbol) \; 2 = \$3 (voice number);
#X obj 125 432 s \$1-off;
#X obj 157 167 r \$1-on;
#X obj 156 189 route \$2;
#X text 221 167 voice-number fake-note note-on-off-toggle [any note
info];
#X text 336 402 messages to voice [note info] or bang if none given
;
#X obj -103 274 signal_off \$1;
#X obj 194 335 route 0 1;
#X obj 386 376 outlet;
#X text 436 369 external note off messages (may be ignored if patch
generates its own note off's);
#X connect 0 0 1 0;
#X connect 0 1 10 1;
#X connect 1 0 3 1;
#X connect 1 1 11 0;
#X connect 3 0 4 0;
#X connect 4 0 13 0;
#X connect 5 0 6 0;
#X connect 6 0 3 0;
#X connect 8 0 18 0;
#X connect 10 0 2 0;
#X connect 11 0 19 0;
#X connect 14 0 15 0;
#X connect 15 0 0 0;
#X connect 18 0 6 0;
#X connect 19 0 10 0;
#X connect 19 1 20 0;
