#N canvas 237 275 523 739 12;
#X msg 67 269 start;
#X msg 140 295 stop;
#X obj 100 115 bng 30 250 50 0 empty empty \$1_open_recording_file 0 -9 0 10 #fc0400 #000000 #000000;
#X obj 292 234 list trim;
#X obj 292 263 list prepend open;
#X obj 319 197 savepanel;
#X obj 290 291 list trim;
#X obj 100 170 tgl 30 0 empty empty start/stop_recording 0 -9 0 10 #fcc4c4 #000000 #000000 0 1;
#X obj 98 234 sel 1 0;
#X msg 361 146 set 0;
#X obj 312 117 t b b;
#X obj 169 451 receive~ out1;
#X obj 266 452 receive~ out2;
#X obj 81 534 writesf~ 2;
#X connect 0 0 13 0;
#X connect 1 0 13 0;
#X connect 2 0 10 0;
#X connect 3 0 4 0;
#X connect 4 0 6 0;
#X connect 5 0 3 0;
#X connect 6 0 13 0;
#X connect 7 0 8 0;
#X connect 8 0 0 0;
#X connect 8 1 1 0;
#X connect 9 0 7 0;
#X connect 10 0 5 0;
#X connect 10 1 9 0;
#X connect 11 0 13 0;
#X connect 12 0 13 1;
#X coords 0 -1 1 1 170 120 2 100 100;
