#N canvas 470 209 428 502 10;
#X floatatom 222 184 5 0 0 0 - - -;
#X obj 222 226 == 0;
#X obj 220 283 sel 1;
#X obj 219 309 bng 15 250 50 0 empty empty empty 17 7 0 10 -262144
-1 -1;
#X obj 222 160 snapshot~;
#X obj 220 105 *~;
#X obj 220 136 lop~ 20;
#X obj 220 80 inlet~;
#X obj 113 41 loadbang;
#X obj 219 334 outlet;
#X obj 114 105 metro 2;
#X obj 208 43 r \$1-init-me;
#X msg 128 71 1;
#X obj 221 255 change 1;
#X connect 0 0 1 0;
#X connect 1 0 13 0;
#X connect 2 0 3 0;
#X connect 3 0 9 0;
#X connect 4 0 0 0;
#X connect 5 0 6 0;
#X connect 6 0 4 0;
#X connect 7 0 5 0;
#X connect 7 0 5 1;
#X connect 8 0 12 0;
#X connect 10 0 4 0;
#X connect 11 0 12 0;
#X connect 12 0 10 0;
#X connect 13 0 2 0;
