#N canvas 569 88 684 432 10;
#X obj 39 34 inlet;
#X obj 84 124 unpack 0 0 0 0;
#X obj 156 292 cos~;
#X obj 21 187 loadbang;
#X obj 156 317 +~ 1;
#X obj 155 339 /~ 2;
#X msg 21 207 0.5;
#X obj 155 370 *~ 0;
#X obj 155 269 vline~;
#X obj 154 406 outlet~;
#X obj 107 56 inlet;
#X obj 146 185 unpack;
#X obj 262 91 inlet;
#X msg 261 134 stop;
#X obj 261 113 t b;
#X text 38 6 asr envelope: ramp-up time \, delay from onset to ramp-down
\, ramp-down time \, level;
#X obj 162 69 inlet;
#X text 107 38 ramp-up: level time;
#X text 169 54 ramp-down: time;
#X msg 73 152 0.5 \, 1 \$1 \, 0.5 \$3 \$2;
#X msg 172 215 0.5 \, 1 \$1;
#X text 258 68 hang (stop line);
#X msg 163 93 0.5 \$1;
#X text 230 286 if ramp-up = ramp-down = dur / 2 \, this is a raised
cosine window \; otherwise \, ramp-up and ramp-down are raised cosine
segments of adjustable size;
#X obj 355 271 del;
#X msg 311 247 stop;
#X obj 354 195 +;
#X obj 354 225 t b f b;
#X obj 362 409 outlet;
#X text 410 409 down;
#X connect 0 0 1 0;
#X connect 0 0 19 0;
#X connect 1 1 26 0;
#X connect 1 2 26 1;
#X connect 1 3 7 1;
#X connect 2 0 4 0;
#X connect 3 0 6 0;
#X connect 4 0 5 0;
#X connect 5 0 7 0;
#X connect 6 0 8 0;
#X connect 7 0 9 0;
#X connect 8 0 2 0;
#X connect 10 0 11 0;
#X connect 10 0 25 0;
#X connect 11 0 7 1;
#X connect 11 1 20 0;
#X connect 12 0 14 0;
#X connect 13 0 8 0;
#X connect 14 0 13 0;
#X connect 16 0 22 0;
#X connect 16 0 25 0;
#X connect 16 0 27 0;
#X connect 19 0 8 0;
#X connect 20 0 8 0;
#X connect 22 0 8 0;
#X connect 24 0 28 0;
#X connect 25 0 24 0;
#X connect 26 0 27 0;
#X connect 27 0 24 0;
#X connect 27 1 24 1;
#X connect 27 2 25 0;
