#N canvas 237 275 803 739 12;
#X msg 146 400 stop;
#X obj 0 14 bng 30 250 50 0 empty empty \$1_table_clear 0 -9 0 10 #fc0400 #000000 #000000;
#X obj 0 69 tgl 30 0 empty empty start/stop_recording 0 -9 0 10 #fcc4c4 #000000 #000000 0 1;
#X obj 104 339 sel 1 0;
#X obj 360 2 table \$0-table;
#X obj 352 408 loadbang;
#X obj 448 497 samplerate~;
#X obj 334 494 float \$2;
#X obj 355 440 t b b b;
#X obj 553 496 float \$0;
#X obj 325 530 expr $f1 * $f2 / 1000;
#X obj 325 568 pack 0 0;
#X msg 324 626 \; \$2-table resize \$1;
#X text 509 249 arguments \; \$1 = input source \; \$2 = table size (ms);
#X obj 476 361 float \$0;
#X obj 153 450 catch~ \$1;
#X msg 476 385 \; \$1-table const 0 \; \$0-position 0;
#X obj 135 0 scope~;
#X obj 257 242 tgl 19 0 empty empty empty 0 -10 0 12 #fcfcfc #000000 #000000 0 1;
#X obj 278 302 float \$0;
#X obj 260 274 t b i;
#X obj 277 329 pack;
#X msg 272 360 \; \$1-table vis \$2;
#X obj 81 534 tabwrite~ \$0-table;
#X obj 85 388 bng 19 250 50 0 empty empty empty 0 -10 0 12 #fcfcfc #000000 #000000;
#X connect 0 0 23 0;
#X connect 1 0 14 0;
#X connect 2 0 3 0;
#X connect 3 0 24 0;
#X connect 3 1 0 0;
#X connect 5 0 8 0;
#X connect 6 0 10 1;
#X connect 7 0 10 0;
#X connect 8 0 7 0;
#X connect 8 1 6 0;
#X connect 8 2 9 0;
#X connect 9 0 11 1;
#X connect 10 0 11 0;
#X connect 11 0 12 0;
#X connect 14 0 16 0;
#X connect 15 0 17 0;
#X connect 15 0 23 0;
#X connect 18 0 20 0;
#X connect 19 0 21 0;
#X connect 20 0 19 0;
#X connect 20 1 21 1;
#X connect 21 0 22 0;
#X connect 24 0 23 0;
#X coords 0 -1 1 1 720 182 2 0 0;
